<svg width="95" height="96" viewBox="0 0 95 96" fill="none" xmlns="http://www.w3.org/2000/svg">
<mask id="mask0_150_2" style="mask-type:luminance" maskUnits="userSpaceOnUse" x="11" y="11" width="72" height="73">
<path d="M11.8562 11.981H82.7262V83.597H11.8562V11.981Z" fill="white"/>
</mask>
<g mask="url(#mask0_150_2)">
<path d="M80.6105 46.273L48.7479 14.075C47.4555 12.787 45.6841 11.981 43.7356 11.981H18.9406C15.0268 11.981 11.8562 15.185 11.8562 19.14V44.196C11.8562 46.183 12.6538 47.973 13.9462 49.261L45.8256 81.476C47.1012 82.765 48.8726 83.57 50.8201 83.57C52.7686 83.57 54.5577 82.765 55.8323 81.476L80.6273 56.42C81.9029 55.114 82.6995 53.324 82.6995 51.355C82.6995 49.369 81.9029 47.579 80.6105 46.273ZM24.2537 29.879C21.3146 29.879 18.9406 27.48 18.9406 24.509C18.9406 21.539 21.3146 19.14 24.2537 19.14C27.1938 19.14 29.5678 21.539 29.5678 24.509C29.5678 27.48 27.1938 29.879 24.2537 29.879Z" fill="#FFCF00"/>
</g>
<path d="M38.648 56.288C37.48 56.288 36.32 56.136 35.168 55.832C34.032 55.512 33.056 55.064 32.24 54.488L33.776 51.512C34.416 51.976 35.152 52.344 35.984 52.616C36.832 52.888 37.688 53.024 38.552 53.024C39.528 53.024 40.296 52.832 40.856 52.448C41.416 52.064 41.696 51.528 41.696 50.84C41.696 50.408 41.584 50.024 41.36 49.688C41.136 49.352 40.736 49.096 40.16 48.92C39.6 48.744 38.808 48.656 37.784 48.656H33.488L34.352 39.2H44.6V42.32H35.744L37.76 40.544L37.16 47.288L35.144 45.512H38.696C40.36 45.512 41.696 45.744 42.704 46.208C43.728 46.656 44.472 47.272 44.936 48.056C45.4 48.84 45.632 49.728 45.632 50.72C45.632 51.712 45.384 52.632 44.888 53.48C44.392 54.312 43.624 54.992 42.584 55.52C41.56 56.032 40.248 56.288 38.648 56.288ZM49.3991 56L60.8711 39.2H63.7271L52.2551 56H49.3991ZM50.8631 48.272C50.0471 48.272 49.3271 48.088 48.7031 47.72C48.0791 47.336 47.5831 46.8 47.2151 46.112C46.8631 45.408 46.6871 44.584 46.6871 43.64C46.6871 42.696 46.8631 41.88 47.2151 41.192C47.5831 40.504 48.0791 39.968 48.7031 39.584C49.3271 39.2 50.0471 39.008 50.8631 39.008C51.6791 39.008 52.3991 39.2 53.0231 39.584C53.6471 39.968 54.1351 40.504 54.4871 41.192C54.8391 41.88 55.0151 42.696 55.0151 43.64C55.0151 44.584 54.8391 45.408 54.4871 46.112C54.1351 46.8 53.6471 47.336 53.0231 47.72C52.3991 48.088 51.6791 48.272 50.8631 48.272ZM50.8631 46.304C51.3911 46.304 51.8151 46.088 52.1351 45.656C52.4551 45.208 52.6151 44.536 52.6151 43.64C52.6151 42.744 52.4551 42.08 52.1351 41.648C51.8151 41.2 51.3911 40.976 50.8631 40.976C50.3511 40.976 49.9271 41.2 49.5911 41.648C49.2711 42.08 49.1111 42.744 49.1111 43.64C49.1111 44.52 49.2711 45.184 49.5911 45.632C49.9271 46.08 50.3511 46.304 50.8631 46.304ZM62.2631 56.192C61.4631 56.192 60.7431 56.008 60.1031 55.64C59.4791 55.256 58.9911 54.72 58.6391 54.032C58.2871 53.328 58.1111 52.504 58.1111 51.56C58.1111 50.616 58.2871 49.8 58.6391 49.112C58.9911 48.424 59.4791 47.888 60.1031 47.504C60.7431 47.12 61.4631 46.928 62.2631 46.928C63.0951 46.928 63.8231 47.12 64.4471 47.504C65.0711 47.888 65.5591 48.424 65.9111 49.112C66.2631 49.8 66.4391 50.616 66.4391 51.56C66.4391 52.504 66.2631 53.328 65.9111 54.032C65.5591 54.72 65.0711 55.256 64.4471 55.64C63.8231 56.008 63.0951 56.192 62.2631 56.192ZM62.2631 54.224C62.7911 54.224 63.2151 54.008 63.5351 53.576C63.8551 53.128 64.0151 52.456 64.0151 51.56C64.0151 50.68 63.8551 50.016 63.5351 49.568C63.2151 49.12 62.7911 48.896 62.2631 48.896C61.7511 48.896 61.3271 49.12 60.9911 49.568C60.6711 50 60.5111 50.664 60.5111 51.56C60.5111 52.456 60.6711 53.128 60.9911 53.576C61.3271 54.008 61.7511 54.224 62.2631 54.224Z" fill="black"/>
</svg>
