<svg width="140" height="122" viewBox="0 0 140 122" fill="none" xmlns="http://www.w3.org/2000/svg">
<path d="M28.7073 62.6521C24.306 67.1191 19.3346 72.5977 17.8952 78.4422C17.1704 81.5253 17.9958 84.5575 21.3033 86.179C26.266 88.5339 33.0487 87.699 38.3921 86.7268C58.9414 82.3983 77.5162 71.5861 93.6716 60.0113C94.3527 59.5144 95.3662 59.5932 95.9364 60.1867C96.5168 60.7903 96.4075 61.6977 95.6973 62.1832C78.9089 73.5393 59.6968 84.0466 38.675 87.9277C33.0254 88.8084 26.0137 89.4819 20.8381 86.8551C17.3002 84.9984 16.4004 81.6765 17.306 78.3355C18.9554 72.435 24.1018 67.0695 28.7073 62.6521Z" fill="#FECE00"/>
<path d="M124.968 34.6873C123.982 33.7214 120.124 35.5324 118.73 36.6647C118.71 36.6812 116.89 38.3841 114.307 40.8025L106.518 39.3512L106.636 39.2483C106.961 38.9649 106.961 38.501 106.638 38.2164L106.4 38.0092C106.075 37.7258 105.543 37.7258 105.216 38.008L104.458 38.6688C104.369 38.745 104.307 38.8353 104.266 38.9306L100.504 38.2291L100.645 38.1071C100.971 37.8237 100.971 37.3598 100.645 37.0764L100.409 36.8693C100.084 36.5846 99.5502 36.5846 99.225 36.868L98.4433 37.5492C98.3544 37.6254 98.2931 37.7144 98.2523 37.8097L93.9823 37.0142C93.5317 36.9303 92.8973 37.093 92.5706 37.3764L91.1706 38.5938C90.844 38.8785 90.9256 39.2369 91.35 39.3932L108.93 45.8388C104.172 50.2969 99.1215 55.0295 97.4123 56.6295L91.3033 55.8022C90.8352 55.7386 90.1965 55.9089 89.8844 56.1796C89.5723 56.4503 89.6773 56.7972 90.1192 56.951L96.1771 59.053C96.3463 59.1114 96.7342 59.4507 96.8013 59.5982L99.2031 64.8835C99.3781 65.2686 99.7763 65.3601 100.087 65.0894C100.399 64.8175 100.596 64.2621 100.523 63.8542L99.5779 58.4938L111.969 48.4962L119.33 63.8262C119.508 64.196 119.919 64.2672 120.245 63.9838L121.645 62.7663C121.972 62.4817 122.16 61.9289 122.064 61.5362L121.16 57.8139C121.269 57.7796 121.373 57.7249 121.46 57.6487L122.243 56.9688C122.569 56.6841 122.57 56.2203 122.245 55.9356L122.009 55.7297C121.682 55.4451 121.15 55.4451 120.824 55.7285L120.683 55.8505L119.887 52.5704C119.996 52.5361 120.1 52.4815 120.189 52.4052L120.947 51.7457C121.274 51.461 121.274 50.9972 120.948 50.7138L120.712 50.5066C120.385 50.2219 119.853 50.2219 119.526 50.5053L119.41 50.607L117.76 43.8233L122.302 40.1595C123.696 39.0284 125.953 35.6531 124.968 34.6873Z" fill="#FECE00"/>
</svg>
