<svg width="90" height="76" viewBox="0 0 90 76" fill="none" xmlns="http://www.w3.org/2000/svg">
<mask id="mask0_155_2134" style="mask-type:luminance" maskUnits="userSpaceOnUse" x="5" y="26" width="80" height="24">
<path d="M5.18945 26.3325H84.7495V49.6661H5.18945V26.3325Z" fill="white"/>
</mask>
<g mask="url(#mask0_155_2134)">
<path d="M39.2766 49.0201C39.3188 48.6654 39.4716 47.39 39.6179 46.1859C39.7641 44.9818 39.9722 43.366 40.08 42.5941C40.1879 41.8222 40.2769 41.1327 40.2769 41.0622C40.2769 40.972 40.1307 40.9617 39.78 41.0282C39.5054 41.0805 37.5469 41.4019 35.4263 41.7431C33.3057 42.0843 30.345 42.5403 28.846 42.7564C27.3479 42.9725 25.0144 43.275 23.6616 43.427C22.3097 43.5797 20.5444 43.7381 19.74 43.7792C18.8354 43.8252 17.9766 43.8062 17.4854 43.7286C17.0494 43.6597 16.3144 43.4531 15.8513 43.2702C15.2241 43.0224 14.6297 42.6274 13.5197 41.7193C12.7004 41.0488 10.8038 39.5692 9.3038 38.4323C7.8038 37.2947 6.2513 36.1254 5.85473 35.8341C5.45723 35.5427 5.15911 35.2839 5.19192 35.2593C5.22473 35.234 6.39005 35.0052 7.78317 34.7503C9.17536 34.4962 10.4616 34.2887 10.6407 34.2895C10.8207 34.2911 11.2125 34.3861 11.5135 34.5017C11.8135 34.6165 12.7819 35.1216 13.665 35.6235C14.5491 36.1254 15.7707 36.7382 16.38 36.986C16.9904 37.233 17.8463 37.491 18.2822 37.5591C18.9225 37.6597 19.3444 37.6478 20.4629 37.4982C21.226 37.396 22.8413 37.1348 24.0525 36.9171C25.2629 36.6994 28.4072 36.0716 31.0397 35.5214C33.6713 34.972 39.1154 33.7876 43.1363 32.8899C47.1572 31.9921 52.9304 30.7001 55.9641 30.0185C58.9988 29.3369 63.466 28.3544 65.8932 27.8359C68.3185 27.3165 71.071 26.7576 72.0075 26.5937C73.4072 26.3483 73.9463 26.304 75.0394 26.3475C75.9591 26.384 76.6004 26.475 77.1188 26.6428C77.5322 26.7766 78.2335 27.0846 78.6779 27.3268C79.1213 27.5691 79.6594 27.8438 79.8722 27.9372C80.086 28.0298 80.731 28.1874 81.3057 28.2871C81.8804 28.3869 82.7185 28.6157 83.1685 28.7962C83.6175 28.9767 84.1707 29.3028 84.3976 29.5205C84.6244 29.739 84.8101 30.0217 84.8101 30.1491C84.8101 30.2766 84.7135 30.5521 84.5954 30.7619C84.4772 30.9717 84.0957 31.3208 83.745 31.5377C83.3954 31.7546 82.7729 32.0578 82.3613 32.2114C81.9497 32.365 80.7319 32.722 79.6557 33.0055C78.5794 33.2881 76.3819 33.8225 74.7741 34.1922C73.1654 34.5627 69.8447 35.2847 67.396 35.7977C64.9472 36.3107 61.2085 37.0675 59.0879 37.48C56.9682 37.8916 55.1279 38.255 54.9985 38.2867C54.8691 38.3183 53.9457 39.2588 52.9454 40.3759C51.945 41.4929 50.1835 43.4072 49.0313 44.6295C47.8782 45.8518 46.4579 47.3006 45.8757 47.8492C45.2935 48.3978 44.6175 48.9259 44.3757 49.0217C44.1329 49.1175 43.1522 49.3019 42.1979 49.431C41.2425 49.56 40.1785 49.6661 39.8316 49.6661C39.2016 49.6661 39.2016 49.6661 39.2766 49.0201ZM34.7794 30.3114C34.0257 29.3187 33.3319 28.3837 33.2382 28.2349C33.09 28.0005 33.0985 27.9427 33.2972 27.82C33.4247 27.7417 34.4635 27.4171 35.6072 27.0996C37.2563 26.6405 37.8 26.5344 38.2369 26.5842C38.5407 26.6183 39.4079 26.8534 40.1644 27.1067C40.9219 27.3593 42.7529 28.0243 44.2332 28.584C45.7135 29.1429 46.9247 29.6322 46.9247 29.671C46.9247 29.7097 45.9525 29.9552 44.7647 30.2172C43.5769 30.4792 41.1525 31.0136 39.3769 31.4055C36.15 32.1172 36.15 32.1172 34.7794 30.3114Z" fill="#FECE00"/>
</g>
</svg>
