<svg width="84" height="76" viewBox="0 0 84 76" fill="none" xmlns="http://www.w3.org/2000/svg">
<mask id="mask0_153_1765" style="mask-type:luminance" maskUnits="userSpaceOnUse" x="4" y="22" width="76" height="28">
<path d="M4.84277 22.3979H79.0988V49.302H4.84277V22.3979Z" fill="white"/>
</mask>
<g mask="url(#mask0_153_1765)">
<path d="M78.0672 44.8013C78.0444 44.8242 78.0208 44.8464 77.9972 44.8686C77.9823 44.8828 77.9674 44.8971 77.9517 44.9113C77.9359 44.9256 77.921 44.939 77.9053 44.9533C77.8904 44.9667 77.8755 44.9794 77.8607 44.9921C77.8449 45.0055 77.8292 45.019 77.8134 45.0324C77.7933 45.0491 77.774 45.0649 77.7539 45.0807C77.732 45.0989 77.7084 45.1164 77.6857 45.1338C77.6682 45.148 77.6507 45.1615 77.6323 45.1749C77.6165 45.1868 77.5999 45.1987 77.5842 45.2098C77.5658 45.2232 77.5483 45.2359 77.5299 45.2486C77.5142 45.2589 77.4993 45.2699 77.4835 45.281C77.452 45.3016 77.4214 45.3222 77.389 45.3428C77.3759 45.3515 77.3619 45.3594 77.3479 45.3681C77.326 45.3816 77.3042 45.395 77.2823 45.4085C77.2674 45.418 77.2517 45.4267 77.2359 45.4362C77.2132 45.4489 77.1904 45.4615 77.1677 45.4742C77.1537 45.4821 77.1405 45.49 77.1265 45.4971C77.0915 45.5161 77.0565 45.5344 77.0207 45.5526C77.0084 45.5589 76.9962 45.5652 76.983 45.5708C76.9577 45.5842 76.9314 45.5969 76.9043 45.6088C76.8903 45.6159 76.8754 45.6222 76.8614 45.6294C76.8334 45.642 76.8054 45.6539 76.7774 45.6658C76.766 45.6705 76.7547 45.6761 76.7433 45.6808C76.7048 45.6966 76.6654 45.7125 76.6269 45.7275C76.6155 45.7323 76.6042 45.7362 76.5928 45.7402C76.563 45.7513 76.5324 45.7624 76.5027 45.7734C76.4887 45.7782 76.4755 45.7829 76.4615 45.7877C76.4292 45.7988 76.3959 45.8091 76.3627 45.8194C76.3539 45.8225 76.3452 45.8257 76.3364 45.8281C76.2944 45.8407 76.2524 45.8526 76.2104 45.8645C76.199 45.8676 76.1885 45.8708 76.1772 45.8732C76.1439 45.8819 76.1115 45.8906 76.0792 45.8985C76.066 45.9017 76.0529 45.9049 76.0398 45.908C76.0022 45.9167 75.9645 45.9246 75.926 45.9326C75.9199 45.9341 75.9138 45.9357 75.9077 45.9365C75.8639 45.9452 75.8202 45.9539 75.7755 45.9611C75.7633 45.9634 75.751 45.965 75.7397 45.9674C75.7055 45.9729 75.6714 45.9777 75.6373 45.9824C75.6242 45.984 75.611 45.9864 75.597 45.988C75.5559 45.9935 75.5139 45.9983 75.4719 46.003C75.4684 46.003 75.464 46.0038 75.4605 46.0038C75.415 46.0086 75.3695 46.0117 75.3232 46.0157C75.31 46.0165 75.2969 46.0173 75.2838 46.0181C75.2497 46.0196 75.2147 46.0212 75.1797 46.0228C75.1657 46.0236 75.1525 46.0244 75.1385 46.0244C75.0922 46.026 75.0449 46.0268 74.9977 46.0268H64.7794C64.4014 46.0268 64.0742 45.7821 64.0112 45.4433C63.704 43.7792 62.1054 42.511 60.1787 42.511C59.8523 42.511 59.5329 42.5474 59.2302 42.6179C59.1304 42.64 59.0342 42.6654 58.9379 42.6954C57.5983 43.1016 56.5824 44.1537 56.3453 45.4433C56.2832 45.7821 55.9559 46.0268 55.577 46.0268H29.7899C29.4102 46.0268 29.0838 45.7821 29.0217 45.4433C28.7137 43.7792 27.1142 42.511 25.1883 42.511C23.2615 42.511 21.6629 43.7792 21.3558 45.4433C21.2928 45.7821 20.9655 46.0268 20.5875 46.0268H8.99902C8.96402 46.0268 8.92815 46.0268 8.89315 46.026C8.8809 46.0252 8.86865 46.0252 8.8564 46.0244C8.83365 46.0236 8.81002 46.0228 8.78727 46.022C8.7724 46.0212 8.7584 46.0204 8.74352 46.0196C8.7234 46.0189 8.7024 46.0173 8.6814 46.0165C8.66652 46.0149 8.65077 46.0133 8.63502 46.0125C8.61577 46.0109 8.59652 46.0094 8.57727 46.0078C8.56152 46.0062 8.5449 46.0046 8.52915 46.003C8.51077 46.0006 8.4924 45.9991 8.47402 45.9975C8.4574 45.9951 8.44077 45.9927 8.42415 45.9911C8.40665 45.9888 8.38827 45.9864 8.37077 45.984C8.35415 45.9816 8.33752 45.9793 8.3209 45.9769C8.3034 45.9737 8.2859 45.9714 8.2684 45.969C8.25177 45.9658 8.23515 45.9634 8.21765 45.9603C8.20102 45.9571 8.1844 45.9547 8.16777 45.9516C8.15027 45.9484 8.13365 45.9452 8.11702 45.9413C8.1004 45.9381 8.08377 45.9349 8.06715 45.9318C8.05052 45.9286 8.03302 45.9246 8.0164 45.9207C8.00065 45.9175 7.98402 45.9136 7.9674 45.9104C7.95077 45.9064 7.93415 45.9017 7.91665 45.8977C7.9009 45.8938 7.88515 45.8898 7.8694 45.8859C7.8519 45.8819 7.83527 45.8771 7.81865 45.8724C7.8029 45.8684 7.78715 45.8645 7.77227 45.8605C7.75477 45.8558 7.73815 45.8502 7.72152 45.8455C7.70577 45.8407 7.6909 45.8368 7.67515 45.832C7.65852 45.8273 7.6419 45.8217 7.62527 45.8162C7.60952 45.8114 7.59465 45.8067 7.57977 45.8019C7.56315 45.7964 7.54652 45.7909 7.5299 45.7853C7.51502 45.7798 7.50015 45.775 7.48527 45.7695C7.46865 45.7639 7.45202 45.7576 7.43627 45.7513C7.4214 45.7465 7.40652 45.741 7.39252 45.7354C7.3759 45.7291 7.35927 45.7228 7.34352 45.7164C7.32865 45.7109 7.31465 45.7054 7.30065 45.699C7.28402 45.6927 7.2674 45.6856 7.25165 45.6792C7.23765 45.6729 7.22365 45.6674 7.20965 45.661C7.19302 45.6539 7.17727 45.6468 7.16065 45.6396C7.14752 45.6333 7.13352 45.6278 7.11952 45.6214C7.10377 45.6135 7.08802 45.6064 7.07227 45.5985C7.05827 45.5921 7.04427 45.5858 7.03115 45.5795C7.0154 45.5716 6.99965 45.5636 6.9839 45.5557C6.97077 45.5494 6.95765 45.5423 6.94365 45.5359C6.92877 45.5272 6.91302 45.5193 6.89727 45.5114C6.88415 45.5043 6.87102 45.4971 6.8579 45.49C6.84215 45.4813 6.82727 45.4734 6.81152 45.4647C6.79927 45.4576 6.78615 45.4496 6.77302 45.4425C6.75815 45.4338 6.74327 45.4251 6.72752 45.4156C6.71527 45.4085 6.70302 45.4014 6.6899 45.3934C6.67502 45.3847 6.66015 45.3752 6.64527 45.3657C6.63302 45.3578 6.62077 45.3507 6.60852 45.3428C6.59365 45.3333 6.57877 45.3238 6.5639 45.3143C6.55252 45.3064 6.54027 45.2984 6.52802 45.2905C6.51315 45.2802 6.49915 45.2707 6.48427 45.2604C6.4729 45.2525 6.46065 45.2446 6.44927 45.2359C6.4344 45.2256 6.4204 45.2153 6.4064 45.205C6.39415 45.1971 6.38277 45.1884 6.3714 45.1805C6.3574 45.1694 6.3434 45.1591 6.3294 45.148C6.31802 45.1393 6.30665 45.1314 6.29615 45.1227C6.28215 45.1116 6.26815 45.1005 6.25415 45.0894C6.24277 45.0815 6.23227 45.072 6.22177 45.0633C6.20777 45.0522 6.19377 45.0411 6.17977 45.0293C6.16927 45.0206 6.15877 45.0119 6.14915 45.0031C6.13515 44.9913 6.12115 44.9794 6.10802 44.9675C6.0984 44.9588 6.0879 44.9501 6.07827 44.9414C6.06427 44.9287 6.05115 44.9169 6.03802 44.905C6.02752 44.8955 6.0179 44.8868 6.00827 44.8781C5.99515 44.8654 5.98202 44.8527 5.9689 44.8401C5.95927 44.8306 5.94965 44.8219 5.9409 44.8131C5.92777 44.7997 5.91465 44.787 5.90152 44.7736C5.89277 44.7649 5.88402 44.7554 5.87527 44.7466C5.86215 44.7332 5.84902 44.7197 5.83677 44.7063C5.82802 44.6968 5.81927 44.6881 5.81052 44.6786C5.79827 44.6651 5.78515 44.6509 5.7729 44.6366C5.76415 44.6279 5.75627 44.6192 5.7484 44.6097C5.73615 44.5954 5.72302 44.5812 5.71077 44.5661C5.7029 44.5574 5.6959 44.5487 5.68802 44.5392C5.67577 44.525 5.66265 44.5091 5.6504 44.4941C5.6434 44.4854 5.6364 44.4767 5.6294 44.468C5.61715 44.4521 5.6049 44.4371 5.59265 44.4213C5.58565 44.4126 5.57952 44.4039 5.57252 44.3951C5.56027 44.3793 5.54802 44.3627 5.53665 44.3461C5.53052 44.3381 5.5244 44.3294 5.51827 44.3215C5.50602 44.3041 5.49377 44.2875 5.48152 44.2709C5.47627 44.2621 5.47102 44.2542 5.4649 44.2463C5.45352 44.2289 5.44127 44.2107 5.42902 44.1933C5.42465 44.1854 5.4194 44.1782 5.41415 44.1703C5.40277 44.1521 5.39052 44.1331 5.37915 44.1149C5.37477 44.1078 5.3704 44.1006 5.36602 44.0927C5.35377 44.0737 5.3424 44.0547 5.33102 44.0349C5.32665 44.0286 5.32315 44.0215 5.31877 44.0151C5.3074 43.9946 5.29602 43.9748 5.28465 43.9542C5.28115 43.9479 5.27765 43.9423 5.27415 43.936C5.26277 43.9146 5.2514 43.894 5.24002 43.8726C5.2374 43.8671 5.23477 43.8616 5.23127 43.856C5.2199 43.8339 5.2094 43.8117 5.19802 43.7895C5.1954 43.7848 5.19365 43.78 5.19102 43.7753C5.17965 43.7523 5.16915 43.7286 5.15777 43.7048C5.15602 43.7016 5.15515 43.6977 5.1534 43.6937C5.14202 43.6692 5.13152 43.6446 5.12015 43.6201C5.11927 43.6169 5.1184 43.6146 5.11665 43.6114C5.10615 43.5861 5.09565 43.5599 5.08515 43.5338C5.08427 43.5322 5.0834 43.5306 5.0834 43.5291C5.07202 43.5014 5.06152 43.4744 5.0519 43.4467C5.0519 43.4459 5.0519 43.4459 5.0519 43.4459C4.92327 43.0936 4.85065 42.7184 4.84365 42.3289C4.84277 42.3083 4.84277 42.2885 4.84277 42.2671V26.1575C4.84277 24.0818 6.7039 22.3987 8.99902 22.3987H72.8548C74.9557 22.3987 76.7284 23.8189 76.9795 25.7094L77.0268 26.0554L78.5948 37.8449L78.74 38.9295L79.1233 41.8167C79.1294 41.8579 79.1338 41.8982 79.1373 41.9386C79.139 41.9536 79.1399 41.9679 79.1417 41.9829C79.1434 42.0091 79.1452 42.0352 79.1469 42.0613C79.1478 42.0771 79.1495 42.0938 79.1504 42.1104C79.1513 42.1381 79.1522 42.165 79.153 42.1927C79.153 42.2054 79.1539 42.2189 79.1539 42.2323C79.1548 42.2703 79.1539 42.3075 79.153 42.3455C79.153 42.3614 79.1522 42.3764 79.1522 42.3922C79.1513 42.4168 79.1495 42.4421 79.1487 42.4674C79.1478 42.4833 79.1469 42.4991 79.1452 42.5149C79.1434 42.5419 79.1408 42.5696 79.1382 42.5965C79.1373 42.6091 79.1364 42.621 79.1355 42.6329C79.1312 42.6717 79.1259 42.7105 79.1207 42.7493C79.1198 42.758 79.118 42.7675 79.1163 42.777C79.1119 42.8079 79.1067 42.8387 79.1014 42.8696C79.0997 42.8807 79.097 42.8918 79.0953 42.9029C79.0892 42.9345 79.083 42.9662 79.076 42.9979C79.0743 43.005 79.0725 43.0129 79.0708 43.02C79.0533 43.1008 79.0314 43.1799 79.0078 43.2591C79.006 43.2646 79.0043 43.2702 79.0025 43.2757C78.992 43.3114 78.9807 43.347 78.9684 43.3826C78.9667 43.3858 78.9658 43.3897 78.964 43.3937C78.936 43.4736 78.9063 43.552 78.8722 43.6296C78.8713 43.632 78.8704 43.6336 78.8695 43.6351C78.8538 43.6724 78.8372 43.7088 78.8205 43.7444C78.8188 43.7476 78.817 43.7507 78.8162 43.7539C78.7794 43.8307 78.74 43.9059 78.698 43.9795C78.6954 43.9843 78.6928 43.989 78.6902 43.9946C78.6727 44.0246 78.6543 44.0547 78.6368 44.084C78.6307 44.0935 78.6254 44.1022 78.6202 44.1109C78.6009 44.141 78.5825 44.1703 78.5624 44.1996C78.5598 44.2051 78.5563 44.2099 78.5528 44.2154C78.5318 44.2471 78.509 44.2788 78.4863 44.3104C78.4775 44.3231 78.4688 44.335 78.4592 44.3476C78.4452 44.3674 78.4303 44.3872 78.4154 44.4062C78.4049 44.4205 78.3944 44.4339 78.3839 44.4474C78.3673 44.468 78.3515 44.4878 78.3349 44.5076C78.3192 44.5274 78.3025 44.5464 78.2859 44.5661C78.2702 44.5851 78.2535 44.6034 78.2369 44.6224C78.2238 44.6366 78.2107 44.6516 78.1975 44.6667C78.1835 44.6809 78.1704 44.696 78.1564 44.7102C78.1424 44.7253 78.1284 44.7403 78.1144 44.7546C78.0987 44.7704 78.0829 44.7862 78.0672 44.8021V44.8013ZM28.7644 46.026C28.7644 47.8128 27.164 49.2607 25.1891 49.2607C23.2143 49.2607 21.6139 47.8128 21.6139 46.026C21.6139 44.24 23.2143 42.7912 25.1891 42.7912C27.164 42.7912 28.7644 44.24 28.7644 46.026ZM26.9234 46.026C26.9234 45.1599 26.1473 44.4569 25.1891 44.4569C24.231 44.4569 23.4549 45.1599 23.4549 46.026C23.4549 46.8929 24.231 47.5951 25.1891 47.5951C26.1473 47.5951 26.9234 46.8929 26.9234 46.026ZM63.7539 46.026C63.7539 47.8128 62.1535 49.2607 60.1787 49.2607C58.2038 49.2607 56.6034 47.8128 56.6034 46.026C56.6034 44.24 58.2038 42.7912 60.1787 42.7912C62.1535 42.7912 63.7539 44.24 63.7539 46.026ZM61.9129 46.026C61.9129 45.1599 61.1368 44.4569 60.1787 44.4569C59.2205 44.4569 58.4444 45.1599 58.4444 46.026C58.4444 46.8929 59.2205 47.5951 60.1787 47.5951C61.1368 47.5951 61.9129 46.8929 61.9129 46.026ZM70.9867 26.0554H66.0254C65.916 26.0554 65.8268 26.2018 65.8268 26.3823V44.4569H71.1853V26.3823C71.1853 26.2018 71.096 26.0554 70.9858 26.0554H70.9867ZM16.1556 26.0554H11.1953C11.085 26.0554 10.9958 26.2018 10.9958 26.3823V44.4569H16.3543V26.3823C16.3543 26.2018 16.2659 26.0554 16.1556 26.0554ZM32.3397 26.0435H27.4046V26.0427H27.0643V26.0435H22.2369C21.893 26.0435 21.6139 26.2573 21.6139 26.5201V35.5633C21.6139 35.8277 21.8939 36.0407 22.2369 36.0407H32.3397C32.6827 36.0407 32.9618 35.8277 32.9618 35.5633V26.5201C32.9618 26.2573 32.6835 26.0435 32.3397 26.0435ZM46.3747 26.0435H41.4397V26.0427H41.0993V26.0435H36.2719C35.9289 26.0435 35.6489 26.2573 35.6489 26.5201V35.5633C35.6489 35.8277 35.9289 36.0407 36.2719 36.0407H46.3747C46.7177 36.0407 46.9959 35.8277 46.9959 35.5633V26.5201C46.9959 26.2573 46.7185 26.0435 46.3747 26.0435ZM59.5565 26.0435H54.6215V26.0427H54.2812V26.0435H49.4547C49.1108 26.0435 48.8308 26.2573 48.8308 26.5201V35.5633C48.8308 35.8277 49.1108 36.0407 49.4547 36.0407H59.5565C59.9004 36.0407 60.1787 35.8277 60.1787 35.5633V26.5201C60.1787 26.2573 59.9004 26.0435 59.5565 26.0435ZM75.9514 26.8613C75.8937 26.4021 75.464 26.0554 74.953 26.0554H73.2582V36.0407H77.1064L75.9514 26.8613Z" fill="#FECE00"/>
</g>
</svg>
