<svg width="25" height="25" viewBox="0 0 25 25" fill="none" xmlns="http://www.w3.org/2000/svg">
<mask id="mask0_2_180" style="mask-type:luminance" maskUnits="userSpaceOnUse" x="3" y="3" width="19" height="19">
<path d="M3.47166 3.61096H21.3801V21.6703H3.47166V3.61096Z" fill="white"/>
</mask>
<g mask="url(#mask0_2_180)">
<path d="M20.1052 5.77532H18.4956V3.97177C18.4956 3.7727 18.3357 3.61096 18.1378 3.61096C17.9401 3.61096 17.7802 3.7727 17.7802 3.97177V5.77532H7.04886V3.97177C7.04886 3.7727 6.88847 3.61096 6.69107 3.61096C6.49366 3.61096 6.33327 3.7727 6.33327 3.97177V5.77532H4.72369C4.03327 5.77532 3.47166 6.34166 3.47166 7.0379V20.3846C3.47166 21.0808 4.03327 21.6472 4.72369 21.6472H20.1052C20.7956 21.6472 21.3572 21.0808 21.3572 20.3846V7.0379C21.3572 6.34166 20.7956 5.77532 20.1052 5.77532ZM4.72369 6.49668H6.33327V7.57886C6.33327 7.77817 6.49366 7.93967 6.69107 7.93967C6.88847 7.93967 7.04886 7.77817 7.04886 7.57886V6.49668H17.7802V7.57886C17.7802 7.77817 17.9401 7.93967 18.1378 7.93967C18.3357 7.93967 18.4956 7.77817 18.4956 7.57886V6.49668H20.1052C20.401 6.49668 20.6418 6.73954 20.6418 7.0379V9.38265H4.187V7.0379C4.187 6.73954 4.42783 6.49668 4.72369 6.49668ZM20.1052 20.9258H4.72369C4.42783 20.9258 4.187 20.6829 4.187 20.3846V10.104H20.6418V20.3846C20.6418 20.6829 20.401 20.9258 20.1052 20.9258Z" fill="#FFCF00"/>
</g>
<path d="M5.97572 11.9076H7.40641V13.3506H5.97572V11.9076Z" fill="#FFCF00"/>
<path d="M8.83734 11.9076H10.2683V13.3506H8.83734V11.9076Z" fill="#FFCF00"/>
<path d="M11.699 11.9076H13.1299V13.3506H11.699V11.9076Z" fill="#FFCF00"/>
<path d="M14.5608 11.9076H15.9915V13.3506H14.5608V11.9076Z" fill="#FFCF00"/>
<path d="M17.4224 11.9076H18.8534V13.3506H17.4224V11.9076Z" fill="#FFCF00"/>
<path d="M5.97572 14.7936H7.40641V16.2363H5.97572V14.7936Z" fill="#FFCF00"/>
<path d="M8.83734 14.7936H10.2683V16.2363H8.83734V14.7936Z" fill="#FFCF00"/>
<path d="M11.699 14.7936H13.1299V16.2363H11.699V14.7936Z" fill="#FFCF00"/>
<path d="M14.5608 14.7936H15.9915V16.2363H14.5608V14.7936Z" fill="#FFCF00"/>
<path d="M17.4224 14.7936H18.8534V16.2363H17.4224V14.7936Z" fill="#FFCF00"/>
<path d="M5.97572 17.6792H7.40641V19.1222H5.97572V17.6792Z" fill="#FFCF00"/>
<path d="M8.83734 17.6792H10.2683V19.1222H8.83734V17.6792Z" fill="#FFCF00"/>
<path d="M11.699 17.6792H13.1299V19.1222H11.699V17.6792Z" fill="#FFCF00"/>
<path d="M14.5608 17.6792H15.9915V19.1222H14.5608V17.6792Z" fill="#FFCF00"/>
<path d="M17.4224 17.6792H18.8534V19.1222H17.4224V17.6792Z" fill="#FFCF00"/>
</svg>
