<svg width="60" height="60" viewBox="0 0 60 60" fill="none" xmlns="http://www.w3.org/2000/svg">
<mask id="mask0_180_787" style="mask-type:luminance" maskUnits="userSpaceOnUse" x="8" y="8" width="43" height="43">
<path d="M8.93555 8.34814H50.258V50.8281H8.93555V8.34814Z" fill="white"/>
</mask>
<g mask="url(#mask0_180_787)">
<path d="M49.1818 49.7856H10.0124V11.7938H14.9805V14.2688H16.5955V11.7938H42.5987V14.2688H44.2131V11.7938H49.1818V49.7856ZM44.2131 10.7494V8.34814H42.5987V10.7494H16.5955V8.34814H14.9805V10.7494H8.93555V50.83H50.258V10.7494H44.2131Z" fill="#9FA4B1"/>
</g>
<path d="M19.5152 26.3182H15.209V22.012H19.5152V26.3182Z" fill="#9FA4B1"/>
<path d="M27.6715 26.3182H23.3652V22.012H27.6715V26.3182Z" fill="#9FA4B1"/>
<path d="M35.8291 26.3182H31.5234V22.012H35.8291V26.3182Z" fill="#9FA4B1"/>
<path d="M43.9859 26.3182H39.6797V22.012H43.9859V26.3182Z" fill="#9FA4B1"/>
<path d="M19.5224 33.8951H15.2168V29.5889H19.5224V33.8951Z" fill="#9FA4B1"/>
<path d="M27.6799 33.8951H23.373V29.5889H27.6799V33.8951Z" fill="#9FA4B1"/>
<path d="M35.8369 33.8951H31.5312V29.5889H35.8369V33.8951Z" fill="#9FA4B1"/>
<path d="M43.9931 33.8951H39.6875V29.5889H43.9931V33.8951Z" fill="#9FA4B1"/>
<path d="M19.5224 41.4725H15.2168V37.1663H19.5224V41.4725Z" fill="#9FA4B1"/>
<path d="M27.6799 41.4725H23.373V37.1663H27.6799V41.4725Z" fill="#9FA4B1"/>
<path d="M35.8369 41.4725H31.5312V37.1663H35.8369V41.4725Z" fill="#9FA4B1"/>
<path d="M43.9931 41.4725H39.6875V37.1663H43.9931V41.4725Z" fill="#9FA4B1"/>
</svg>
