<svg width="25" height="22" viewBox="0 0 25 22" fill="none" xmlns="http://www.w3.org/2000/svg">
<mask id="mask0_2_160" style="mask-type:luminance" maskUnits="userSpaceOnUse" x="3" y="3" width="19" height="17">
<path d="M3.83838 3.20215H21.4152V19.028H3.83838V3.20215Z" fill="white"/>
</mask>
<g mask="url(#mask0_2_160)">
<path d="M12.6251 19.0246C10.2779 19.0246 8.0717 18.2017 6.41179 16.7076C4.75236 15.2132 3.83838 13.2266 3.83838 11.1135C3.83838 9.00019 4.75236 7.01374 6.41179 5.51919C8.0717 4.02508 10.2779 3.20215 12.6251 3.20215C14.972 3.20215 17.1784 4.02508 18.8381 5.51919C20.4975 7.01374 21.4115 9.00019 21.4115 11.1135C21.4115 13.2266 20.4975 15.2132 18.8381 16.7076C17.1787 18.2019 14.972 19.0246 12.6251 19.0246ZM12.6251 4.40966C8.51932 4.40966 5.17949 7.41699 5.17949 11.1135C5.17949 14.81 8.51957 17.8171 12.6251 17.8171C16.7306 17.8171 20.0704 14.8098 20.0704 11.1135C20.0704 7.41676 16.7306 4.40966 12.6251 4.40966Z" fill="#FFCF00"/>
</g>
<path d="M15.5415 14.1682C15.4109 14.1682 15.2789 14.1337 15.1629 14.0622L11.8964 12.0455C11.7138 11.9327 11.605 11.7461 11.6052 11.5465L11.6136 6.61142C11.6141 6.27838 11.9144 6.00867 12.284 6.00867C12.2843 6.00867 12.2848 6.00867 12.285 6.00867C12.6552 6.00911 12.955 6.27994 12.9545 6.6132L12.9466 11.2299L15.9212 13.0666C16.2264 13.2553 16.3044 13.631 16.0947 13.906C15.9649 14.0764 15.7549 14.1682 15.5415 14.1682Z" fill="#FFCF00"/>
</svg>
