<svg width="25" height="24" viewBox="0 0 25 24" fill="none" xmlns="http://www.w3.org/2000/svg">
<mask id="mask0_45_345" style="mask-type:luminance" maskUnits="userSpaceOnUse" x="2" y="5" width="21" height="14">
<path d="M2.50415 5.19141H22.4969V18.8234H2.50415V5.19141Z" fill="white"/>
</mask>
<g mask="url(#mask0_45_345)">
<path d="M21.8518 17.8074C20.3521 16.4897 17.0164 13.6137 14.695 12.0084C17.0135 10.4034 20.3513 7.52542 21.8518 6.20717V17.8074ZM3.64556 18.2034C5.86665 16.2264 8.87941 13.6959 10.8047 12.3777C11.5456 12.8492 12.1469 13.1439 12.4976 13.1474C12.8169 13.1474 13.4091 12.8529 14.1432 12.3789C16.0042 13.6699 18.9846 16.1327 21.3461 18.2034H3.64556ZM3.14921 6.21492C4.63098 7.53692 7.91405 10.4052 10.2476 12.0074C7.91405 13.6094 4.63098 16.4779 3.14921 17.7997V6.21492ZM21.3461 5.81142C17.9771 8.76567 13.3029 12.5282 12.4976 12.5279C11.6924 12.5277 6.78488 8.60567 3.64556 5.81142H21.3461ZM22.1745 5.19142H2.82655C2.72082 5.19117 2.50337 5.27517 2.50415 5.50142V18.5132C2.50337 18.6407 2.61509 18.8224 2.82655 18.8232H22.1745C22.4357 18.8302 22.4987 18.6544 22.4969 18.5132V5.50142C22.4987 5.41192 22.444 5.18917 22.1745 5.19142Z" fill="black"/>
</g>
</svg>
