<svg width="20" height="19" viewBox="0 0 20 19" fill="none" xmlns="http://www.w3.org/2000/svg">
<mask id="mask0_2_170" style="mask-type:luminance" maskUnits="userSpaceOnUse" x="3" y="3" width="14" height="13">
<path d="M3.75719 3.08325H16.2492V15.6415H3.75719V3.08325Z" fill="white"/>
</mask>
<g mask="url(#mask0_2_170)">
<path d="M15.6551 13.8613C15.5563 13.8613 15.4684 13.8808 15.3805 13.9299C14.4796 14.4002 13.4578 14.6451 12.4141 14.6451C9.88712 14.6451 7.65673 13.1754 6.82165 11.1177H11.9086C12.2164 11.1177 12.4579 10.9023 12.4579 10.6279C12.4579 10.3535 12.2164 10.138 11.9086 10.138H6.53605C6.49201 9.84405 6.47008 9.60891 6.47008 9.35403C6.47008 9.09933 6.49201 8.86418 6.53605 8.57021H11.8977C12.2052 8.57021 12.447 8.35461 12.447 8.08036C12.447 7.80593 12.2052 7.59034 11.8977 7.59034H6.81069C7.65673 5.43473 9.88712 4.06312 12.4031 4.06312C13.4468 4.06312 14.4687 4.30805 15.3695 4.77834C15.4574 4.81744 15.5453 4.84695 15.6442 4.84695C15.8421 4.84695 16.0178 4.74901 16.1167 4.60202C16.2706 4.36688 16.1825 4.06312 15.9188 3.93568C14.8641 3.36746 13.6446 3.08325 12.4031 3.08325C9.29379 3.08325 6.53605 4.94488 5.65713 7.59034H4.31663C4.0089 7.59034 3.76735 7.80593 3.76735 8.08036C3.76735 8.35461 4.0089 8.57021 4.31663 8.57021H5.42634C5.39325 8.86418 5.37133 9.09933 5.37133 9.35403C5.37133 9.60891 5.39325 9.84405 5.42634 10.138H4.31663C4.0089 10.138 3.76735 10.3535 3.76735 10.6279C3.76735 10.9023 4.0089 11.1177 4.31663 11.1177H5.65713C6.53605 13.7634 9.29379 15.625 12.4031 15.625C13.6446 15.625 14.8531 15.331 15.93 14.7823C16.1936 14.6451 16.2815 14.3414 16.1277 14.116C16.0288 13.9592 15.853 13.8613 15.6551 13.8613Z" fill="#FFCF00"/>
</g>
</svg>
