<svg width="37" height="31" viewBox="0 0 37 31" fill="none" xmlns="http://www.w3.org/2000/svg">
<mask id="mask0_180_1180" style="mask-type:luminance" maskUnits="userSpaceOnUse" x="5" y="9" width="27" height="13">
<path d="M5 9H31.9275V21.12H5V9Z" fill="white"/>
</mask>
<g mask="url(#mask0_180_1180)">
<path d="M30.2362 15.1859C30.0624 15.3443 26.747 18.3268 22.228 19.5599C23.9728 18.5852 25.1183 16.9571 25.1183 15.1162C25.1183 13.1246 23.7778 11.3815 21.7883 10.4465C26.5304 11.5977 30.057 14.7702 30.2366 14.934L30.3746 15.0599L30.2362 15.1859ZM6.68109 15.1859L6.54273 15.0599L6.67917 14.9352C6.85916 14.7727 10.3757 11.6352 15.0627 10.4665C13.0967 11.4065 11.7748 13.1387 11.7748 15.1162C11.7748 16.9465 12.9071 18.5665 14.6349 19.5427C10.151 18.2996 6.85415 15.3434 6.68109 15.1859ZM18.4467 19.4799C15.4721 19.4799 13.052 17.5224 13.052 15.1162C13.052 12.7099 15.4721 10.7521 18.4467 10.7521C21.4214 10.7521 23.8414 12.7099 23.8414 15.1162C23.8414 17.5224 21.4214 19.4799 18.4467 19.4799ZM31.7062 14.7168L31.1917 14.2484C30.9569 14.034 25.3599 9.00024 18.459 9.00024C15.5719 9.00024 12.5818 9.85868 9.57249 11.5521C7.34517 12.8052 5.88636 14.1031 5.72526 14.2484L5.2115 14.7171C4.99721 14.9127 4.99721 15.2068 5.2115 15.4024L5.72642 15.8718C5.88328 16.0146 7.32628 17.3046 9.57018 18.5674C12.5791 20.2609 15.57 21.1196 18.459 21.1196C25.3599 21.1196 30.9569 16.0852 31.1913 15.8715L31.7062 15.4027C31.9209 15.2071 31.9209 14.9124 31.7062 14.7168Z" fill="#100F0D"/>
</g>
<path d="M18.0603 12.8584C16.7024 12.8584 15.5977 13.7576 15.5977 14.8623C15.5977 15.9686 16.7024 16.8684 18.0603 16.8684C19.4193 16.8684 20.5252 15.9686 20.5252 14.8623C20.5252 13.7576 19.4193 12.8584 18.0603 12.8584Z" fill="#100F0D"/>
</svg>
