<svg width="47" height="47" viewBox="0 0 47 47" fill="none" xmlns="http://www.w3.org/2000/svg">
<rect x="0.5" y="0.5" width="46" height="46" rx="4.5" stroke="black"/>
<mask id="mask0_266_788" style="mask-type:luminance" maskUnits="userSpaceOnUse" x="5" y="5" width="37" height="37">
<path d="M5.14355 5.25146H41.2396V41.0655H5.14355V5.25146Z" fill="white"/>
</mask>
<g mask="url(#mask0_266_788)">
<path d="M23.191 5.25342C13.2235 5.25342 5.14297 13.3178 5.14297 23.2662C5.14297 32.2691 11.7612 39.7289 20.4067 41.065V28.8665H15.8712V23.3093H20.4067V19.8425C20.4067 15.2776 24.128 11.5637 28.7022 11.5637H31.3739V17.1209H28.7022C27.1987 17.1209 25.9752 18.3419 25.9752 19.8425V23.3093H30.6077V28.8665H25.9752V41.065C34.6208 39.7289 41.239 32.2691 41.239 23.2662C41.239 13.3178 33.1584 5.25342 23.191 5.25342Z" fill="black"/>
</g>
</svg>
