<svg width="25" height="25" viewBox="0 0 25 25" fill="none" xmlns="http://www.w3.org/2000/svg">
<mask id="mask0_2_70" style="mask-type:luminance" maskUnits="userSpaceOnUse" x="2" y="2" width="21" height="20">
<path d="M2.62631 2.26733H22.3763V21.9173H2.62631V2.26733Z" fill="white"/>
</mask>
<g mask="url(#mask0_2_70)">
<path d="M12.499 2.26831C7.04614 2.26831 2.62582 6.68888 2.62582 12.1417C2.62582 17.0766 6.2464 21.1657 10.9761 21.898V15.2115H8.49484V12.1652H10.9761V10.2652C10.9761 7.76284 13.0118 5.72716 15.5141 5.72716H16.9758V8.77352H15.5141C14.6915 8.77352 14.0222 9.44253 14.0222 10.2652V12.1652H16.5566V15.2115H14.0222V21.898C18.7519 21.1657 22.3724 17.0766 22.3724 12.1417C22.3724 6.68888 17.9521 2.26831 12.499 2.26831Z" fill="black"/>
</g>
</svg>
