<svg width="21" height="20" viewBox="0 0 21 20" fill="none" xmlns="http://www.w3.org/2000/svg">
<mask id="mask0_2_127" style="mask-type:luminance" maskUnits="userSpaceOnUse" x="4" y="1" width="13" height="17">
<path d="M4.65729 1.15991H16.7641V17.3722H4.65729V1.15991Z" fill="white"/>
</mask>
<g mask="url(#mask0_2_127)">
<path fill-rule="evenodd" clip-rule="evenodd" d="M10.7033 1.16589C14.0424 1.16589 16.7493 3.70064 16.7493 6.82733C16.7493 7.91535 16.4212 8.93121 15.8532 9.79398C15.1718 10.8509 14.4905 11.9079 13.809 12.965C12.9793 14.228 12.3077 15.2502 11.478 16.5134C10.7465 17.6272 10.697 17.6545 9.96157 16.5351C9.13602 15.2782 8.44188 14.2217 7.61612 12.965C6.93638 11.9197 6.25665 10.8748 5.57691 9.82975C4.99454 8.95942 4.65729 7.93027 4.65729 6.82733C4.65729 3.70064 7.36422 1.16589 10.7033 1.16589ZM10.7033 4.00438C12.2001 4.00438 13.4137 5.14063 13.4137 6.5424C13.4137 7.94417 12.2003 9.08042 10.7033 9.08042C9.20631 9.08042 7.99265 7.94417 7.99265 6.5424C7.99287 5.14063 9.20631 4.00438 10.7033 4.00438Z" fill="#FFCF00"/>
</g>
</svg>
