<svg width="35" height="35" viewBox="0 0 35 35" fill="none" xmlns="http://www.w3.org/2000/svg">
<mask id="mask0_189_4" style="mask-type:luminance" maskUnits="userSpaceOnUse" x="1" y="8" width="33" height="3">
<path d="M1.71753 8.80518H33.6933V10.4531H1.71753V8.80518Z" fill="white"/>
</mask>
<g mask="url(#mask0_189_4)">
<path d="M32.9806 10.4173H2.41243C2.02888 10.4173 1.71753 10.002 1.71753 9.6185C1.71753 9.23496 2.02888 8.81934 2.41243 8.81934H32.9806C33.3641 8.81934 33.6758 9.23496 33.6758 9.6185C33.6758 10.002 33.3641 10.4173 32.9806 10.4173Z" fill="black"/>
</g>
<mask id="mask1_189_4" style="mask-type:luminance" maskUnits="userSpaceOnUse" x="1" y="16" width="33" height="3">
<path d="M1.71753 16.7998H33.6933V18.4798H1.71753V16.7998Z" fill="white"/>
</mask>
<g mask="url(#mask1_189_4)">
<path d="M32.9806 18.4067H2.41243C2.02888 18.4067 1.71753 17.9914 1.71753 17.6079C1.71753 17.2243 2.02888 16.8091 2.41243 16.8091H32.9806C33.3641 16.8091 33.6758 17.2243 33.6758 17.6079C33.6758 17.9914 33.3641 18.4067 32.9806 18.4067Z" fill="black"/>
</g>
<mask id="mask2_189_4" style="mask-type:luminance" maskUnits="userSpaceOnUse" x="1" y="24" width="33" height="3">
<path d="M1.71753 24.7334H33.6933V26.4134H1.71753V24.7334Z" fill="white"/>
</mask>
<g mask="url(#mask2_189_4)">
<path d="M32.9806 26.3968H2.41243C2.02888 26.3968 1.71753 25.9812 1.71753 25.5976C1.71753 25.2141 2.02888 24.7988 2.41243 24.7988H32.9806C33.3641 24.7988 33.6758 25.2141 33.6758 25.5976C33.6758 25.9812 33.3641 26.3968 32.9806 26.3968Z" fill="black"/>
</g>
</svg>
