<svg width="47" height="47" viewBox="0 0 47 47" fill="none" xmlns="http://www.w3.org/2000/svg">
<rect x="0.5" y="0.5" width="46" height="46" rx="4.5" stroke="black"/>
<path d="M23.5 19.333C21.2048 19.333 19.3332 21.2047 19.3332 23.4999C19.3332 25.795 21.2048 27.6667 23.5 27.6667C25.7952 27.6667 27.6668 25.795 27.6668 23.4999C27.6668 21.2047 25.7952 19.333 23.5 19.333Z" fill="black"/>
<path d="M29.0994 13.2778H17.9006C15.3617 13.2778 13.278 15.3449 13.278 17.9005V29.0992C13.278 31.6382 15.345 33.7219 17.9006 33.7219H29.0994C31.6383 33.7219 33.722 31.6548 33.722 29.0992V17.9005C33.7059 15.3449 31.6383 13.2778 29.0994 13.2778ZM23.5 29.7665C20.0328 29.7665 17.2172 26.9504 17.2172 23.4837C17.2172 20.0165 20.0328 17.2009 23.5 17.2009C26.9672 17.2009 29.7828 20.0165 29.7828 23.4837C29.7667 26.9504 26.9506 29.7665 23.5 29.7665ZM30.2225 18.2589C29.3921 18.2589 28.7087 17.5749 28.7087 16.7451C28.7087 15.9147 29.3921 15.2313 30.2225 15.2313C31.0523 15.2313 31.7363 15.9147 31.7363 16.7451C31.7363 17.5911 31.069 18.2589 30.2225 18.2589Z" fill="black"/>
<mask id="mask0_266_780" style="mask-type:luminance" maskUnits="userSpaceOnUse" x="4" y="4" width="39" height="39">
<path d="M4.70001 4.7002H42.3V42.3002H4.70001V4.7002Z" fill="white"/>
</mask>
<g mask="url(#mask0_266_780)">
<path d="M23.5 4.7002C13.1155 4.7002 4.70001 13.1156 4.70001 23.5002C4.70001 33.8847 13.1155 42.3002 23.5 42.3002C33.8846 42.3002 42.3 33.8847 42.3 23.5002C42.2839 13.1156 33.8684 4.7002 23.5 4.7002ZM35.8218 29.0996C35.8218 32.8106 32.7943 35.8382 29.0832 35.8382H17.9006C14.1896 35.8382 11.162 32.8106 11.162 29.0996V17.9008C11.162 14.1898 14.1896 11.1622 17.9006 11.1622H29.0994C32.8104 11.1622 35.838 14.1898 35.838 17.9008V29.0996H35.8218Z" fill="black"/>
</g>
</svg>
