<svg width="25" height="25" viewBox="0 0 25 25" fill="none" xmlns="http://www.w3.org/2000/svg">
<mask id="mask0_2_82" style="mask-type:luminance" maskUnits="userSpaceOnUse" x="3" y="2" width="19" height="20">
<path d="M3.00391 2.5H22V21.5H3.00391V2.5Z" fill="white"/>
</mask>
<g mask="url(#mask0_2_82)">
<path d="M20.1104 17.4305C20.1104 18.6273 19.1313 19.6065 17.9344 19.6065H7.06563C5.86875 19.6065 4.88958 18.6273 4.88958 17.4305V6.56172C4.88958 5.36484 5.86875 4.38568 7.06563 4.38568H17.9344C19.1313 4.38568 20.1104 5.36484 20.1104 6.56172V17.4305ZM17.9344 2.5H7.06563C4.82604 2.5 3.00391 4.32214 3.00391 6.56172V17.4305C3.00391 19.6701 4.82604 21.4922 7.06563 21.4922H17.9344C20.174 21.4922 21.9961 19.6701 21.9961 17.4305V6.56172C21.9961 4.32214 20.174 2.5 17.9344 2.5Z" fill="black"/>
</g>
<path d="M12.5 15.2078C10.726 15.2078 9.28826 13.77 9.28826 11.9961C9.28826 10.2221 10.726 8.78434 12.5 8.78434C14.2737 8.78434 15.7117 10.2221 15.7117 11.9961C15.7117 13.77 14.2737 15.2078 12.5 15.2078ZM12.5 6.95361C9.71951 6.95361 7.45728 9.21559 7.45728 11.9961C7.45728 14.7765 9.71951 17.0385 12.5 17.0385C15.2805 17.0385 17.5424 14.7765 17.5424 11.9961C17.5424 9.21559 15.2805 6.95361 12.5 6.95361Z" fill="black"/>
<path d="M18.2227 6.02417H17.1109C16.8984 6.02417 16.7245 6.19787 16.7245 6.41063V7.52235C16.7245 7.73485 16.8984 7.90881 17.1109 7.90881H18.2227C18.4354 7.90881 18.6094 7.73485 18.6094 7.52235V6.41063C18.6094 6.19787 18.4354 6.02417 18.2227 6.02417Z" fill="black"/>
</svg>
