<svg width="18" height="18" viewBox="0 0 18 18" fill="none" xmlns="http://www.w3.org/2000/svg">
<mask id="mask0_151_278" style="mask-type:luminance" maskUnits="userSpaceOnUse" x="11" y="2" width="5" height="9">
<path d="M11.376 2.82788H15.024V10.128H11.376V2.82788Z" fill="white"/>
</mask>
<g mask="url(#mask0_151_278)">
<path fill-rule="evenodd" clip-rule="evenodd" d="M11.3813 4.34739C12.5378 4.34739 13.4755 5.28564 13.4755 6.4427C13.4755 7.59995 12.5378 8.53802 11.3813 8.53802V10.0868C13.3928 10.0868 15.0233 8.45533 15.0233 6.4427C15.0233 4.43027 13.3928 2.79883 11.3813 2.79883V4.34739Z" fill="#FFCF00" fill-opacity="0.35"/>
</g>
<path fill-rule="evenodd" clip-rule="evenodd" d="M11.3816 10.0866C13.7702 10.0866 15.7065 12.0241 15.7065 14.414H17.2543C17.2543 11.1687 14.625 8.53809 11.3816 8.53809V10.0866Z" fill="#FFCF00" fill-opacity="0.35"/>
<mask id="mask1_151_278" style="mask-type:luminance" maskUnits="userSpaceOnUse" x="2" y="2" width="9" height="9">
<path d="M2.97607 2.82788H10.6561V10.464H2.97607V2.82788Z" fill="white"/>
</mask>
<g mask="url(#mask1_151_278)">
<path fill-rule="evenodd" clip-rule="evenodd" d="M6.80636 4.34739C8.06186 4.34739 9.07979 5.36589 9.07979 6.62214C9.07979 7.87839 8.06186 8.8967 6.80636 8.8967C5.55086 8.8967 4.53292 7.87839 4.53292 6.62214C4.53292 5.36589 5.55086 4.34739 6.80636 4.34739ZM10.6276 6.62214C10.6276 4.51052 8.91686 2.79883 6.80636 2.79883C4.69586 2.79883 2.98511 4.51052 2.98511 6.62214C2.98511 8.73358 4.69586 10.4455 6.80636 10.4455C8.91686 10.4455 10.6276 8.73358 10.6276 6.62214Z" fill="#FFCF00" fill-opacity="0.35"/>
</g>
<path fill-rule="evenodd" clip-rule="evenodd" d="M6.80618 10.4455C9.37081 10.4455 11.4498 12.5256 11.4498 15.0915H12.9976C12.9976 11.6702 10.2256 8.89673 6.80618 8.89673C3.38675 8.89673 0.614746 11.6702 0.614746 15.0915H2.16256C2.16256 12.5256 4.24156 10.4455 6.80618 10.4455Z" fill="#FFCF00" fill-opacity="0.35"/>
</svg>
