<svg width="24" height="25" viewBox="0 0 24 25" fill="none" xmlns="http://www.w3.org/2000/svg">
<path d="M12.0895 6.49904C12.0895 6.48133 12.0912 6.46388 12.0945 6.44644C12.0977 6.42899 12.1027 6.41206 12.1092 6.39565C12.1157 6.37925 12.1237 6.36388 12.1332 6.34904C12.1427 6.33446 12.1535 6.32065 12.1655 6.30815C12.1775 6.29565 12.1905 6.28446 12.2047 6.27456C12.2187 6.26466 12.2337 6.25659 12.2495 6.24956C12.2652 6.24279 12.2815 6.23784 12.2982 6.23446C12.3147 6.23081 12.3317 6.22925 12.3487 6.22925C12.4375 6.22925 12.5262 6.23159 12.6147 6.23628C12.7035 6.24097 12.792 6.24774 12.8802 6.25685C12.9685 6.26597 13.0565 6.27743 13.1445 6.29097C13.2322 6.30477 13.3195 6.32039 13.4065 6.33862C13.4937 6.35659 13.5802 6.3769 13.6662 6.39956C13.7522 6.42196 13.8377 6.4467 13.9227 6.47352C14.0077 6.5006 14.092 6.52951 14.1755 6.56076C14.259 6.59175 14.3417 6.62508 14.4237 6.6605C14.5057 6.69591 14.5867 6.73341 14.667 6.773C14.7472 6.81258 14.8265 6.85399 14.9047 6.89774C14.983 6.94123 15.0602 6.9868 15.1362 7.03446C15.2125 7.08185 15.2872 7.13133 15.3612 7.18263C15.435 7.23394 15.5075 7.28732 15.5787 7.34227C15.65 7.39748 15.72 7.45425 15.7885 7.51284C15.857 7.57144 15.9242 7.63185 15.99 7.69383C16.0557 7.75581 16.12 7.81961 16.1827 7.88498C16.2455 7.95034 16.3067 8.01727 16.3662 8.08576C16.426 8.15399 16.484 8.22404 16.5402 8.29539C16.5965 8.36675 16.6512 8.43966 16.704 8.51388C16.757 8.5881 16.808 8.66362 16.8572 8.74045C16.9067 8.81727 16.9542 8.89513 16.9997 8.97456C17.0455 9.05373 17.0892 9.1342 17.131 9.21545C17.173 9.29696 17.213 9.37951 17.251 9.4631C17.2887 9.54644 17.3247 9.63107 17.3587 9.71623C17.3927 9.80164 17.4247 9.88784 17.4547 9.97482C17.4847 10.0618 17.5125 10.1496 17.5385 10.2378C17.5642 10.3264 17.588 10.4154 17.6095 10.505C17.6312 10.5946 17.6507 10.6847 17.668 10.7753C17.6855 10.866 17.7007 10.9569 17.7137 11.0483C17.727 11.1397 17.7377 11.2313 17.7467 11.3233C17.7555 11.4152 17.762 11.5074 17.7665 11.5996C17.771 11.692 17.7732 11.7842 17.7732 11.8766C17.7732 11.8944 17.7715 11.9118 17.7682 11.9292C17.765 11.9467 17.76 11.9636 17.7535 11.98C17.747 11.9962 17.739 12.0118 17.7295 12.0266C17.72 12.0412 17.7092 12.055 17.6972 12.0675C17.6852 12.08 17.6722 12.0912 17.658 12.1011C17.644 12.111 17.629 12.1191 17.6132 12.1259C17.5975 12.1329 17.5812 12.1378 17.5645 12.1412C17.548 12.1449 17.531 12.1464 17.514 12.1464C17.497 12.1464 17.4802 12.1449 17.4635 12.1412C17.4467 12.1378 17.4305 12.1329 17.4147 12.1259C17.399 12.1191 17.3842 12.111 17.37 12.1011C17.3557 12.0912 17.3427 12.08 17.3307 12.0675C17.3187 12.055 17.308 12.0412 17.2985 12.0266C17.289 12.0118 17.281 11.9962 17.2745 11.98C17.268 11.9636 17.263 11.9467 17.2597 11.9292C17.2565 11.9118 17.2547 11.8944 17.2547 11.8766C17.2547 11.793 17.2527 11.7095 17.2485 11.6261C17.2445 11.5425 17.2385 11.4595 17.2307 11.3761C17.2227 11.293 17.2127 11.2102 17.201 11.1274C17.189 11.0449 17.1752 10.9626 17.1595 10.8805C17.144 10.7985 17.1262 10.717 17.1067 10.636C17.087 10.555 17.0657 10.4746 17.0422 10.3946C17.019 10.3147 16.9937 10.2352 16.9667 10.1566C16.9395 10.0779 16.9105 10.0001 16.8797 9.923C16.849 9.84565 16.8165 9.76935 16.7822 9.69383C16.7477 9.61831 16.7117 9.54357 16.6737 9.47013C16.636 9.39644 16.5965 9.32378 16.5552 9.2519C16.5137 9.18029 16.471 9.10972 16.4262 9.04019C16.3817 8.97091 16.3355 8.90243 16.2875 8.8355C16.2397 8.76831 16.1905 8.70243 16.1395 8.63784C16.0885 8.57326 16.0362 8.50998 15.9822 8.448C15.9282 8.38628 15.873 8.3256 15.8162 8.26649C15.7595 8.20763 15.7012 8.14982 15.642 8.09383C15.5825 8.03758 15.5217 7.98315 15.4595 7.93003C15.3975 7.87716 15.3342 7.8256 15.2697 7.77586C15.2055 7.72612 15.1397 7.67795 15.073 7.63159C15.0062 7.58498 14.9385 7.54045 14.8697 7.49722C14.801 7.45425 14.731 7.4131 14.6602 7.37378C14.5895 7.3342 14.518 7.2967 14.4452 7.26102C14.3727 7.22508 14.2995 7.19123 14.2252 7.1592C14.1512 7.12716 14.0762 7.09722 14.0007 7.06883C13.9252 7.04071 13.849 7.0144 13.7722 6.99019C13.6955 6.96571 13.6182 6.94357 13.5402 6.923C13.4625 6.90269 13.3842 6.88446 13.3055 6.86805C13.2267 6.85164 13.1477 6.83732 13.0682 6.82482C12.989 6.81258 12.9092 6.80243 12.8295 6.79409C12.7495 6.78576 12.6695 6.77951 12.5892 6.77534C12.5092 6.77118 12.429 6.76909 12.3487 6.76883C12.3317 6.76883 12.3147 6.76727 12.2982 6.76362C12.2815 6.76024 12.2652 6.75503 12.2495 6.74826C12.2337 6.74149 12.2187 6.73315 12.2047 6.72352C12.1905 6.71362 12.1775 6.70243 12.1655 6.68993C12.1535 6.67743 12.1427 6.66362 12.1332 6.64904C12.1237 6.6342 12.1157 6.61857 12.1092 6.60243C12.1027 6.58602 12.0977 6.56909 12.0945 6.55164C12.0912 6.5342 12.0895 6.51675 12.0895 6.49904Z" fill="black"/>
<mask id="mask0_45_352" style="mask-type:luminance" maskUnits="userSpaceOnUse" x="12" y="3" width="9" height="10">
<path d="M12.032 3.51587H20.416V12.2H12.032V3.51587Z" fill="white"/>
</mask>
<g mask="url(#mask0_45_352)">
<path d="M20.3875 11.8765C20.3875 11.8942 20.386 11.9117 20.3827 11.9291C20.3792 11.9466 20.3745 11.9635 20.368 11.9799C20.3612 11.9961 20.3535 12.0117 20.344 12.0265C20.3345 12.0411 20.3237 12.0549 20.3117 12.0674C20.2997 12.0799 20.2865 12.0911 20.2725 12.101C20.2582 12.1109 20.2432 12.119 20.2275 12.1257C20.2117 12.1328 20.1957 12.1377 20.179 12.1411C20.1622 12.1448 20.1455 12.1463 20.1285 12.1463C20.1112 12.1463 20.0945 12.1448 20.0777 12.1411C20.061 12.1377 20.045 12.1328 20.0292 12.1257C20.0135 12.119 19.9985 12.1109 19.9842 12.101C19.9702 12.0911 19.957 12.0799 19.945 12.0674C19.933 12.0549 19.9222 12.0411 19.9127 12.0265C19.9035 12.0117 19.8955 11.9961 19.889 11.9799C19.8822 11.9635 19.8775 11.9466 19.8742 11.9291C19.8707 11.9117 19.8692 11.8942 19.8692 11.8765C19.869 11.7484 19.866 11.6203 19.8597 11.4924C19.8537 11.3643 19.8445 11.2367 19.8325 11.1091C19.8202 10.9817 19.8052 10.8547 19.787 10.7278C19.769 10.601 19.7477 10.475 19.7237 10.3492C19.6997 10.2237 19.6727 10.0987 19.6427 9.97445C19.6127 9.84997 19.58 9.72653 19.544 9.60413C19.5082 9.48148 19.4697 9.35986 19.4282 9.23929C19.3867 9.11872 19.3425 8.99919 19.2952 8.8807C19.2482 8.76247 19.1982 8.64528 19.1455 8.52939C19.093 8.41377 19.0377 8.29919 18.9795 8.18616C18.9215 8.0734 18.861 7.96195 18.7977 7.85205C18.7342 7.74215 18.6685 7.63382 18.6002 7.52731C18.5317 7.4208 18.461 7.31611 18.3875 7.21325C18.3142 7.11012 18.2385 7.00934 18.1605 6.91012C18.0825 6.81117 18.0022 6.71403 17.9195 6.61924C17.8367 6.52419 17.752 6.43148 17.665 6.34085C17.578 6.25023 17.489 6.16195 17.3977 6.07575C17.3065 5.98981 17.2135 5.90596 17.1182 5.82471C17.0232 5.74346 16.9262 5.66455 16.8275 5.58825C16.7285 5.51195 16.628 5.43799 16.5257 5.36689C16.4235 5.29554 16.3195 5.22705 16.214 5.16117C16.1085 5.09528 16.0015 5.032 15.893 4.97158C15.7845 4.91117 15.6745 4.85335 15.5632 4.79867C15.4522 4.74372 15.3397 4.69189 15.226 4.64268C15.1122 4.59346 14.9975 4.54736 14.8817 4.50413C14.766 4.4609 14.649 4.42054 14.5312 4.3833C14.4135 4.34606 14.295 4.31169 14.1757 4.28044C14.0562 4.24919 13.9362 4.22106 13.8157 4.19606C13.695 4.17106 13.5737 4.14893 13.452 4.12992C13.3302 4.11117 13.2082 4.09528 13.0857 4.08252C12.9632 4.07002 12.8405 4.06038 12.7177 4.05387C12.5947 4.04762 12.4717 4.04424 12.3487 4.04398C12.3317 4.04398 12.3147 4.04242 12.2982 4.03903C12.2815 4.03538 12.2652 4.03044 12.2495 4.02367C12.2337 4.01689 12.2187 4.00856 12.2047 3.99867C12.1905 3.98877 12.1775 3.97757 12.1655 3.96507C12.1535 3.95257 12.1427 3.93877 12.1332 3.92419C12.1237 3.90934 12.1157 3.89398 12.1092 3.87757C12.1027 3.86117 12.0977 3.84424 12.0945 3.82679C12.0912 3.8096 12.0895 3.79189 12.0895 3.77419C12.0895 3.75648 12.0912 3.73903 12.0945 3.72158C12.0977 3.70413 12.1027 3.68721 12.1092 3.67106C12.1157 3.65465 12.1237 3.63903 12.1332 3.62419C12.1427 3.6096 12.1535 3.5958 12.1655 3.5833C12.1775 3.5708 12.1905 3.5596 12.2047 3.54971C12.2187 3.54007 12.2337 3.53174 12.2495 3.52497C12.2652 3.5182 12.2815 3.51299 12.2982 3.5096C12.3147 3.50596 12.3317 3.50439 12.3487 3.50439C12.4802 3.50439 12.6117 3.50804 12.743 3.51507C12.8745 3.52184 13.0055 3.532 13.1365 3.5458C13.2675 3.55934 13.398 3.57627 13.528 3.59632C13.658 3.61663 13.7875 3.64033 13.9165 3.66715C14.0455 3.69398 14.1737 3.72419 14.3015 3.75752C14.429 3.79085 14.5557 3.82757 14.6815 3.86742C14.8075 3.90726 14.9322 3.95049 15.056 3.99658C15.1797 4.04294 15.3025 4.09215 15.424 4.14476C15.5455 4.19736 15.6657 4.25283 15.7845 4.31143C15.9035 4.37002 16.0207 4.43174 16.1367 4.49632C16.2527 4.5609 16.3672 4.62861 16.48 4.69893C16.5927 4.7695 16.7037 4.84268 16.8132 4.91898C16.9225 4.99502 17.03 5.07393 17.1355 5.1557C17.2412 5.23721 17.3447 5.32158 17.4465 5.4083C17.5482 5.49528 17.6477 5.58486 17.7452 5.67679C17.8425 5.76872 17.9377 5.86325 18.0307 5.96012C18.1237 6.057 18.2145 6.15596 18.3027 6.25752C18.3912 6.35908 18.477 6.46273 18.5605 6.56846C18.644 6.67445 18.7247 6.78226 18.8032 6.89242C18.8815 7.00231 18.9572 7.11429 19.0305 7.22809C19.1035 7.34189 19.1737 7.45752 19.2415 7.57497C19.3092 7.69242 19.374 7.81169 19.436 7.93252C19.498 8.05309 19.5572 8.17549 19.6135 8.29919C19.6697 8.42288 19.7232 8.54814 19.7735 8.67471C19.824 8.80101 19.8712 8.92887 19.9157 9.05778C19.96 9.18669 20.0015 9.31663 20.0397 9.44762C20.078 9.57861 20.113 9.71064 20.145 9.84346C20.1772 9.97627 20.206 10.1099 20.2317 10.2442C20.2575 10.3784 20.2802 10.5132 20.2995 10.6487C20.319 10.7843 20.3352 10.92 20.3482 11.0565C20.3612 11.1927 20.371 11.3291 20.3775 11.4659C20.384 11.6028 20.3875 11.7396 20.3875 11.8765Z" fill="black"/>
</g>
<path d="M12.0895 9.22074C12.0895 9.20303 12.0912 9.18532 12.0945 9.16813C12.0977 9.15068 12.1027 9.13376 12.1092 9.11735C12.1157 9.10094 12.1237 9.08558 12.1332 9.07074C12.1427 9.05589 12.1535 9.04235 12.1655 9.02985C12.1775 9.01735 12.1905 9.00615 12.2047 8.99626C12.2187 8.98636 12.2337 8.97803 12.2495 8.97126C12.2652 8.96449 12.2815 8.95954 12.2982 8.95589C12.3147 8.95251 12.3317 8.95068 12.3487 8.95068C12.4405 8.9512 12.532 8.95615 12.6235 8.96605C12.7147 8.97568 12.8055 8.99001 12.8955 9.00902C12.9852 9.02803 13.0742 9.05146 13.162 9.07959C13.2497 9.10745 13.336 9.14001 13.4207 9.17673C13.5055 9.2137 13.5882 9.25459 13.669 9.2999C13.75 9.34521 13.8285 9.39443 13.9047 9.44782C13.9807 9.5012 14.0545 9.55824 14.1252 9.61891C14.196 9.67985 14.264 9.74391 14.3287 9.81162C14.3935 9.87959 14.455 9.95042 14.513 10.0244C14.5712 10.0983 14.6257 10.1752 14.6765 10.2546C14.7275 10.3343 14.7745 10.416 14.8177 10.5004C14.8607 10.5848 14.9 10.6713 14.935 10.7595C14.97 10.8478 15.0007 10.9377 15.0275 11.0293C15.054 11.1207 15.0762 11.2134 15.0942 11.3072C15.112 11.4009 15.1255 11.4952 15.1345 11.5905C15.1432 11.6856 15.1477 11.7809 15.1477 11.8765C15.148 11.8942 15.1465 11.9119 15.1432 11.9293C15.1402 11.9468 15.1352 11.9637 15.129 11.9801C15.1225 11.9968 15.1145 12.0124 15.105 12.027C15.0955 12.0418 15.0847 12.0556 15.0727 12.0681C15.0607 12.0806 15.0475 12.0918 15.0332 12.1017C15.019 12.1116 15.004 12.12 14.9882 12.1265C14.9725 12.1332 14.9562 12.1384 14.9395 12.1416C14.9225 12.145 14.9057 12.1465 14.8887 12.1463C14.855 12.1444 14.8225 12.1361 14.7917 12.1218C14.761 12.1072 14.7335 12.0877 14.7097 12.0627C14.6857 12.0379 14.667 12.0093 14.653 11.9772C14.6392 11.9452 14.6312 11.9116 14.6295 11.8765C14.6295 11.7983 14.6257 11.7205 14.6185 11.6429C14.611 11.565 14.6 11.4879 14.5855 11.4114C14.5707 11.3348 14.5525 11.259 14.5307 11.1843C14.509 11.1098 14.484 11.0364 14.4552 10.964C14.4265 10.8918 14.3945 10.8215 14.3592 10.7525C14.3237 10.6838 14.2855 10.6168 14.2437 10.5517C14.202 10.4869 14.1575 10.4241 14.11 10.364C14.0625 10.3035 14.0122 10.2457 13.9592 10.1903C13.9062 10.1351 13.8507 10.0827 13.7927 10.0332C13.7347 9.9835 13.6747 9.93714 13.6122 9.89365C13.55 9.85016 13.4857 9.81006 13.4197 9.77334C13.3535 9.73636 13.2857 9.70303 13.2165 9.67308C13.1472 9.64313 13.0767 9.61683 13.005 9.59391C12.9332 9.57126 12.8607 9.55225 12.7872 9.53688C12.7135 9.52152 12.6395 9.51006 12.565 9.50225C12.4902 9.49469 12.4155 9.49079 12.3405 9.49053C12.3067 9.48949 12.2745 9.48167 12.2437 9.46761C12.213 9.45329 12.186 9.43376 12.1625 9.4085C12.139 9.38324 12.121 9.35459 12.1085 9.32204C12.0957 9.28949 12.0895 9.25563 12.0895 9.22074Z" fill="black"/>
<mask id="mask1_45_352" style="mask-type:luminance" maskUnits="userSpaceOnUse" x="3" y="4" width="17" height="18">
<path d="M3.26398 4.19995H19.52V21.1158H3.26398V4.19995Z" fill="white"/>
</mask>
<g mask="url(#mask1_45_352)">
<path d="M19.4995 17.6416V18.1643C19.4993 18.2653 19.4893 18.3656 19.47 18.4646C19.4508 18.5638 19.4225 18.6599 19.3853 18.7534C19.3477 18.8466 19.302 18.9354 19.248 19.0192C19.194 19.1034 19.1325 19.181 19.064 19.2526L17.707 20.6536C17.6393 20.7237 17.5658 20.7864 17.4863 20.8414C17.4068 20.8966 17.323 20.9432 17.2348 20.9815C17.1465 21.0195 17.0558 21.0487 16.962 21.0682C16.8685 21.088 16.774 21.0981 16.6785 21.0987H16.6178C16.4023 21.089 16.187 21.0742 15.9723 21.0541C15.7575 21.0341 15.5433 21.0088 15.3295 20.9784C15.1158 20.9479 14.903 20.9125 14.6908 20.8716C14.4788 20.831 14.2678 20.7851 14.0575 20.7343C13.8475 20.6833 13.6388 20.6276 13.4313 20.5666C13.2235 20.5054 13.0175 20.4396 12.8128 20.3687C12.6083 20.2976 12.4053 20.2218 12.204 20.1411C12.0028 20.0604 11.8035 19.9747 11.606 19.8843C11.4085 19.794 11.2133 19.6989 11.02 19.5992C10.8268 19.4992 10.636 19.3948 10.4475 19.2859C10.259 19.1768 10.073 19.0632 9.8895 18.9453C9.706 18.8271 9.52525 18.7047 9.34725 18.5781C9.16925 18.4513 8.994 18.3203 8.822 18.1851C8.64975 18.0497 8.4805 17.9104 8.31475 17.7672C8.14875 17.6237 7.986 17.4763 7.8265 17.3252C7.66725 17.1739 7.51125 17.0187 7.35875 16.8601C7.20625 16.7013 7.0575 16.5388 6.91225 16.3729C6.767 16.207 6.6255 16.0375 6.48775 15.8646C6.35 15.6919 6.21625 15.5159 6.0865 15.3364C5.9565 15.1573 5.83075 14.975 5.709 14.7896C5.58725 14.6041 5.46975 14.4159 5.3565 14.225C5.243 14.0338 5.134 13.8401 5.0295 13.644C4.92475 13.4476 4.8245 13.2489 4.7285 13.0476C4.63275 12.8466 4.5415 12.6432 4.45475 12.4375C4.368 12.232 4.28575 12.0244 4.20825 11.8148C4.13075 11.6054 4.058 11.394 3.98975 11.181C3.92175 10.9679 3.8585 10.7534 3.8 10.5372C3.74125 10.3211 3.68775 10.1036 3.63875 9.88512C3.59 9.66637 3.546 9.44658 3.507 9.22575C3.468 9.00492 3.43375 8.7833 3.40475 8.56064C3.3755 8.33825 3.35125 8.11507 3.33225 7.89163C3.313 7.66794 3.29875 7.44398 3.2895 7.2195C3.28425 7.11377 3.2895 7.0083 3.3055 6.90361C3.3215 6.79893 3.34775 6.6971 3.38425 6.59814C3.421 6.49945 3.467 6.40544 3.5225 6.31663C3.57825 6.22783 3.642 6.14606 3.71425 6.07106L5.06 4.67288C5.12875 4.60153 5.20325 4.53747 5.284 4.48122C5.36475 4.42497 5.45 4.37757 5.5395 4.33851C5.62925 4.29971 5.7215 4.27028 5.81675 4.25023C5.912 4.22992 6.008 4.21976 6.10525 4.21924H6.59875C6.67325 4.21924 6.747 4.22523 6.8205 4.23695C6.894 4.24867 6.96625 4.26611 7.03725 4.28929C7.10825 4.31221 7.177 4.34085 7.244 4.37471C7.31075 4.40856 7.37475 4.44762 7.436 4.49163C7.49725 4.53538 7.555 4.58408 7.609 4.63695C7.66325 4.69007 7.71325 4.74684 7.75925 4.80778C7.805 4.86872 7.84625 4.93278 7.883 5.00023C7.9195 5.06768 7.95125 5.13747 7.97775 5.20986L9.169 8.50596C9.19275 8.57262 9.212 8.64085 9.22675 8.71064C9.2415 8.78018 9.2515 8.85075 9.25675 8.92184C9.262 8.99294 9.26275 9.06403 9.2585 9.13512C9.25425 9.20648 9.2455 9.27705 9.23175 9.34684C9.21825 9.41689 9.20025 9.48538 9.1775 9.55257C9.15475 9.62002 9.1275 9.68538 9.09625 9.74867C9.06475 9.81195 9.02925 9.87288 8.98975 9.93096C8.95025 9.98929 8.907 10.0445 8.86025 10.0963L8.3665 10.639C8.32925 10.6799 8.2955 10.7239 8.2655 10.7708C8.2355 10.8177 8.2095 10.8669 8.1875 10.9182C8.1655 10.9698 8.148 11.0229 8.13475 11.0776C8.1215 11.1323 8.113 11.1877 8.10875 11.2437C8.10475 11.3 8.10525 11.3562 8.11025 11.4122C8.1155 11.4685 8.125 11.5237 8.13925 11.5781C8.1535 11.6325 8.172 11.6851 8.195 11.7362C8.21775 11.7872 8.2445 11.8359 8.2755 11.8823C8.797 12.6713 9.38225 13.4054 10.0308 14.0849C10.6795 14.764 11.3815 15.3773 12.1365 15.9247C12.181 15.9549 12.2275 15.9812 12.2763 16.0031C12.325 16.0252 12.3753 16.0429 12.4268 16.0562C12.4783 16.0695 12.5305 16.0784 12.5835 16.0825C12.6365 16.0867 12.6895 16.0864 12.7425 16.0812C12.7955 16.0763 12.8475 16.0666 12.899 16.0526C12.9503 16.0382 13.0003 16.0198 13.0485 15.9971C13.097 15.9742 13.1433 15.9474 13.1873 15.9164C13.2313 15.8854 13.2728 15.851 13.3113 15.8127L13.8408 15.2903C13.8908 15.2414 13.9435 15.1966 13.9995 15.1554C14.0555 15.1143 14.114 15.0773 14.1748 15.0445C14.2355 15.0119 14.2983 14.9836 14.363 14.9601C14.4275 14.9364 14.4935 14.9174 14.5608 14.9034C14.6278 14.8893 14.6955 14.8799 14.764 14.8755C14.8323 14.8713 14.9008 14.8718 14.969 14.8773C15.0373 14.883 15.1048 14.8935 15.1718 14.9086C15.2388 14.9239 15.3043 14.944 15.3685 14.9687L18.5345 16.2091C18.6045 16.2359 18.672 16.2682 18.7373 16.306C18.8028 16.3437 18.8648 16.3862 18.924 16.4336C18.983 16.481 19.0385 16.5328 19.09 16.589C19.1415 16.6453 19.1888 16.7052 19.2318 16.7687C19.2745 16.8323 19.3125 16.8989 19.3458 16.9685C19.3787 17.0382 19.4067 17.1099 19.4295 17.1841C19.4522 17.258 19.4695 17.3333 19.4813 17.4101C19.493 17.4869 19.499 17.564 19.4995 17.6416Z" fill="black"/>
</g>
</svg>
