<svg width="18" height="18" viewBox="0 0 18 18" fill="none" xmlns="http://www.w3.org/2000/svg">
<path d="M10.2808 11.1897L11.1893 10.2812L13.0335 12.1255L12.1251 13.0338L10.2808 11.1897Z" fill="black"/>
<path d="M15.946 14.0073C16.3474 14.4087 16.3474 15.0601 15.946 15.4619L15.4613 15.946C15.0595 16.348 14.4087 16.348 14.0072 15.946L11.41 13.3482C11.008 12.9462 11.008 12.2954 11.4094 11.8942L11.8941 11.4095C12.2953 11.008 12.9473 11.008 13.3487 11.4095L15.946 14.0073Z" fill="black"/>
<mask id="mask0_189_25" style="mask-type:luminance" maskUnits="userSpaceOnUse" x="1" y="1" width="12" height="12">
<path d="M1.79999 1.7998H12.864V12.8638H1.79999V1.7998Z" fill="white"/>
</mask>
<g mask="url(#mask0_189_25)">
<path d="M7.31677 1.79297C4.26559 1.79297 1.79321 4.26534 1.79321 7.31653C1.79321 10.3675 4.26559 12.8405 7.31677 12.8405C10.3678 12.8405 12.8407 10.3675 12.8407 7.31653C12.8407 4.26534 10.3678 1.79297 7.31677 1.79297ZM7.31677 11.8182C4.82959 11.8182 2.81434 9.80353 2.81434 7.31653C2.81434 4.82934 4.82959 2.81466 7.31677 2.81466C9.80377 2.81466 11.819 4.82934 11.819 7.31653C11.819 9.80353 9.80377 11.8182 7.31677 11.8182Z" fill="black"/>
</g>
<path d="M8.44929 10.0509C6.24598 10.0509 4.45873 8.26418 4.45873 6.0603C4.45873 6.00162 4.46492 5.94424 4.46773 5.88574C4.17673 6.35637 4.0061 6.90968 4.0061 7.50293C4.0061 9.20693 5.3876 10.5879 7.09104 10.5879C7.74898 10.5879 8.35704 10.3807 8.8586 10.0301C8.72398 10.0447 8.58729 10.0509 8.44929 10.0509Z" fill="black"/>
</svg>
