<svg width="30" height="30" viewBox="0 0 30 30" fill="none" xmlns="http://www.w3.org/2000/svg">
<path d="M17.1348 18.6493L18.6488 17.1353L21.7226 20.209L20.2085 21.7228L17.1348 18.6493Z" fill="black"/>
<path d="M26.5763 23.3454C27.2454 24.0145 27.2454 25.1001 26.5763 25.7698L25.7685 26.5767C25.0988 27.2466 24.0141 27.2466 23.345 26.5767L19.0163 22.247C18.3463 21.577 18.3463 20.4923 19.0154 19.8235L19.8232 19.0157C20.4919 18.3467 21.5785 18.3467 22.2475 19.0157L26.5763 23.3454Z" fill="black"/>
<mask id="mask0_155_2499" style="mask-type:luminance" maskUnits="userSpaceOnUse" x="3" y="3" width="19" height="19">
<path d="M3 3H21.44V21.44H3V3Z" fill="white"/>
</mask>
<g mask="url(#mask0_155_2499)">
<path d="M12.1942 2.98877C7.10891 2.98877 2.98828 7.10939 2.98828 12.1947C2.98828 17.2797 7.10891 21.4013 12.1942 21.4013C17.2792 21.4013 21.4008 17.2797 21.4008 12.1947C21.4008 7.10939 17.2792 2.98877 12.1942 2.98877ZM12.1942 19.6975C8.04891 19.6975 4.69016 16.3397 4.69016 12.1947C4.69016 8.04939 8.04891 4.69158 12.1942 4.69158C16.3392 4.69158 19.698 8.04939 19.698 12.1947C19.698 16.3397 16.3392 19.6975 12.1942 19.6975Z" fill="black"/>
</g>
<path d="M14.083 16.7514C10.4109 16.7514 7.43211 13.7736 7.43211 10.1005C7.43211 10.0027 7.44242 9.90707 7.44711 9.80957C6.96211 10.5939 6.67773 11.5161 6.67773 12.5049C6.67773 15.3449 8.98023 17.6464 11.8193 17.6464C12.9159 17.6464 13.9293 17.3011 14.7652 16.7168C14.5409 16.7411 14.313 16.7514 14.083 16.7514Z" fill="black"/>
</svg>
