<svg width="33" height="32" viewBox="0 0 33 32" fill="none" xmlns="http://www.w3.org/2000/svg">
<mask id="mask0_266_753" style="mask-type:luminance" maskUnits="userSpaceOnUse" x="5" y="3" width="23" height="26">
<path d="M5.4945 3.2002H27.5385V28.8002H5.4945V3.2002Z" fill="white"/>
</mask>
<g mask="url(#mask0_266_753)">
<path d="M6.38 7.34693V13.7603C6.38 19.4536 9.64219 24.5719 14.893 27.1169L16.5 27.8969L18.107 27.1169C23.3578 24.5719 26.62 19.4536 26.62 13.7603V7.34693L16.5 4.07693L6.38 7.34693ZM16.5 28.8003C16.433 28.8003 16.3659 28.7853 16.3023 28.7553L14.4994 27.8803C8.94781 25.1886 5.5 19.7786 5.5 13.7603V7.04027C5.5 6.85693 5.62031 6.6936 5.80078 6.63527L16.3608 3.22193C16.4519 3.1936 16.5481 3.1936 16.6392 3.22193L27.1992 6.63527C27.378 6.6936 27.5 6.85693 27.5 7.04027V13.7603C27.5 19.7786 24.0522 25.1886 18.5006 27.8803L16.6977 28.7553C16.6341 28.7853 16.567 28.8003 16.5 28.8003Z" fill="black"/>
</g>
<path d="M9.02 9.19351V13.7602C9.02 18.4768 11.7236 22.7185 16.0738 24.8268L16.5 25.0335L16.9263 24.8268C21.2764 22.7185 23.98 18.4768 23.98 13.7602V9.19351L16.5 6.77518L9.02 9.19351ZM16.5 25.9385C16.433 25.9385 16.3659 25.9235 16.3023 25.8935L15.6802 25.5902C11.0292 23.3368 8.14 18.8035 8.14 13.7602V8.88518C8.14 8.70184 8.26203 8.53851 8.44078 8.48018L16.3608 5.92018C16.4519 5.89184 16.5481 5.89184 16.6392 5.92018L24.5592 8.48018C24.738 8.53851 24.86 8.70184 24.86 8.88518V13.7602C24.86 18.8035 21.9708 23.3368 17.3198 25.5902L16.6977 25.8935C16.6341 25.9235 16.567 25.9385 16.5 25.9385Z" fill="black"/>
<path d="M12.5091 15.7932L15.62 18.8099L21.4775 13.1299L20.8553 12.5266L15.9311 17.3016C15.7592 17.4682 15.4808 17.4682 15.3089 17.3016L13.1312 15.1899L12.5091 15.7932ZM15.62 19.8399C15.5031 19.8399 15.3914 19.7949 15.3089 19.7149L11.5758 16.0949C11.4933 16.0149 11.4469 15.9066 11.4469 15.7932C11.4469 15.6799 11.4933 15.5716 11.5758 15.4916L12.8202 14.2849C12.992 14.1182 13.2705 14.1182 13.4423 14.2849L15.62 16.3966L20.5442 11.6216C20.7161 11.4549 20.9945 11.4549 21.1664 11.6216L22.4108 12.8282C22.5827 12.9949 22.5827 13.2649 22.4108 13.4316L15.9311 19.7149C15.8486 19.7949 15.7369 19.8399 15.62 19.8399Z" fill="black"/>
</svg>
