<svg width="148" height="127" viewBox="0 0 148 127" fill="none" xmlns="http://www.w3.org/2000/svg">
<mask id="mask0_10_266" style="mask-type:luminance" maskUnits="userSpaceOnUse" x="18" y="19" width="112" height="96">
<path d="M18.9147 19.9972H129.027V114.231H18.9147V19.9972Z" fill="white"/>
</mask>
<g mask="url(#mask0_10_266)">
<path d="M128.552 61.3066C128.023 59.9083 126.518 58.9703 124.806 58.9703C124.803 58.9703 124.801 58.9703 124.798 58.9703L116.471 58.9836C116.282 58.9836 116.151 58.9015 116.094 58.7481L113.536 51.9483C113.009 50.5473 111.501 49.6067 109.785 49.6067C109.122 49.6067 108.492 49.7483 107.937 50.001C104.989 46.1261 101.141 42.762 96.6779 40.1571V37.1792C96.6779 36.5509 96.2262 35.9873 95.5417 35.7611L92.8962 34.8866C92.4892 33.6788 91.9265 32.5146 91.2173 31.4127L92.369 29.1875C92.6665 28.612 92.5216 27.94 92.0036 27.4955L87.969 24.0334C87.451 23.5889 86.6679 23.4646 85.9988 23.7199L83.4042 24.7081C82.1184 24.0996 80.7633 23.618 79.3557 23.2688L78.3367 20.996C78.0746 20.41 77.4163 20.0223 76.684 20.0223H70.9799C70.2476 20.0223 69.5893 20.41 69.3272 20.996L68.3082 23.2688C66.9006 23.618 65.544 24.0996 64.2597 24.7081L61.6651 23.7199C60.996 23.4646 60.2129 23.5889 59.6933 24.0334L55.6603 27.4955C55.1423 27.94 54.9959 28.612 55.2934 29.1875L56.4466 31.4127C55.7374 32.516 55.1747 33.6788 54.7677 34.8866L52.1207 35.7611C51.4377 35.9873 50.986 36.5509 50.986 37.1792V40.1545C47.636 42.1058 44.6652 44.4593 42.1276 47.1659C40.0987 46.4053 37.8602 45.9806 35.5092 45.9806C26.3579 45.9806 18.9147 52.369 18.9147 60.2205C18.9147 63.9167 20.2698 65.9037 21.5802 67.8273C23.0279 69.9492 24.5248 72.1453 24.8871 77.3284V79.3432C24.8871 80.7773 25.8738 82.0129 27.2952 82.587V83.476C27.2952 84.9312 28.3112 86.1841 29.765 86.7463V87.6102C29.765 89.5879 31.6412 91.1979 33.946 91.1979H37.0709C38.6419 91.1979 40.0109 90.4505 40.7247 89.3485C44.8224 94.2671 50.34 98.1988 56.7487 100.744C53.2569 103.874 50.9182 107.978 50.3431 112.591C50.2892 113.019 50.451 113.448 50.7871 113.768C51.1232 114.09 51.6027 114.272 52.1052 114.272H95.5587C96.0612 114.272 96.5407 114.09 96.8768 113.768C97.2129 113.448 97.3732 113.019 97.3208 112.591C96.7442 107.976 94.4055 103.871 90.9121 100.741C96.2709 98.6089 101.07 95.4775 104.909 91.5855C108.808 87.63 111.632 82.9694 113.168 77.9925L116.746 80.2336C118.132 81.1001 119.996 81.1014 121.383 80.2362C122.772 79.371 123.346 77.8497 122.812 76.45L120.225 69.6595C120.167 69.506 120.216 69.3737 120.369 69.2785L127.115 65.0901C128.506 64.2276 129.082 62.7062 128.552 61.3066ZM54.5287 38.223L56.886 37.4452C57.4317 37.2652 57.8372 36.8657 57.9728 36.3776C58.3721 34.9382 59.035 33.5677 59.9415 32.303C60.2483 31.877 60.2884 31.3478 60.0525 30.8901L59.0258 28.907L61.3398 26.9227L63.6492 27.8024C64.1842 28.0061 64.8009 27.9704 65.2973 27.7072C66.7711 26.9293 68.3683 26.3618 70.0456 26.0191C70.613 25.9027 71.0785 25.5535 71.2882 25.0865L72.1962 23.0624H75.4677L76.3742 25.0865C76.5838 25.5535 77.0494 25.9027 77.6183 26.0191C79.2956 26.3618 80.8928 26.9293 82.3651 27.7072C82.863 27.9704 83.4797 28.0061 84.0131 27.8024L86.3241 26.9227L88.6381 28.907L87.6114 30.8888C87.374 31.3465 87.4156 31.8757 87.7224 32.303C88.6289 33.5664 89.2918 34.9369 89.6911 36.3776C89.8267 36.8657 90.2322 37.2652 90.778 37.4452L93.1352 38.223V41.0303L90.778 41.8095C90.2322 41.9894 89.8252 42.3876 89.6911 42.8757C89.2902 44.3151 88.6289 45.6856 87.7224 46.9503C87.4156 47.3763 87.374 47.9055 87.6114 48.3645L88.6381 50.3462L86.3241 52.3319L84.0147 51.4509C83.4812 51.2485 82.8646 51.2829 82.3666 51.5461C80.8943 52.3253 79.2956 52.8928 77.6183 53.2355C77.0494 53.3519 76.5838 53.7012 76.3742 54.1681L75.4677 56.1909H72.1962L71.2882 54.1681C71.0785 53.6998 70.6145 53.3506 70.0456 53.2355C68.3683 52.8928 66.7711 52.324 65.2988 51.5461C64.8009 51.2829 64.1842 51.2471 63.6508 51.4509L61.3398 52.3319L59.0258 50.3462L60.0525 48.3645C60.2884 47.9068 60.2483 47.3776 59.9415 46.9503C59.035 45.6869 58.3721 44.3164 57.9728 42.8757C57.8372 42.3876 57.4302 41.9894 56.886 41.8095L54.5287 41.0303V38.223ZM22.4575 60.2205C22.4575 54.0451 28.3127 49.022 35.5092 49.022C42.7057 49.022 48.5594 54.0451 48.5594 60.2205C48.5594 63.0925 47.5974 64.5041 46.378 66.2914C44.9982 68.3141 43.31 70.7919 42.7227 75.7555H39.8397V64.7898H41.5125C44.3892 64.7898 46.7295 62.783 46.7295 60.3144C46.7295 57.8459 44.3892 55.839 41.5125 55.839C38.6372 55.839 36.297 57.8459 36.297 60.3144V61.7498H34.7199V60.3144C34.7199 57.8472 32.3812 55.839 29.5044 55.839C26.6277 55.839 24.289 57.8459 24.289 60.3144C24.289 62.783 26.6277 64.7898 29.5044 64.7898H31.1771V75.7555H28.2942C27.7068 70.7919 26.0187 68.3154 24.6389 66.2914C23.4195 64.5041 22.4575 63.0925 22.4575 60.2205ZM31.4762 84.0237C31.1293 84.0237 30.838 83.7737 30.838 83.4774V82.9297H40.1789V83.4774C40.1789 83.7737 39.8875 84.0237 39.5422 84.0237H31.4762ZM42.587 79.3432C42.587 79.6396 42.2956 79.8896 41.9503 79.8896H29.0666C28.7212 79.8896 28.4299 79.6396 28.4299 79.3432V78.7956H42.587V79.3432ZM31.1771 61.7498H29.5044C28.581 61.7498 27.8317 61.1055 27.8317 60.3144C27.8317 59.5233 28.581 58.879 29.5044 58.879C30.4263 58.879 31.1771 59.5233 31.1771 60.3144V61.7498ZM36.297 75.7555H34.7199V64.7898H36.297V75.7555ZM39.8397 61.7498V60.3144C39.8397 59.5233 40.5905 58.879 41.5125 58.879C42.4344 58.879 43.1852 59.5233 43.1852 60.3144C43.1852 61.1055 42.4344 61.7498 41.5125 61.7498H39.8397ZM37.0709 88.1578H33.946C33.6006 88.1578 33.3077 87.9078 33.3077 87.6102V87.0638H37.7092V87.6102C37.7092 87.9078 37.4162 88.1578 37.0709 88.1578ZM54.1726 111.233C56.0827 103.317 64.212 97.5386 73.832 97.5386C83.452 97.5386 91.5796 103.317 93.4913 111.233H54.1726ZM64.5542 86.5373C64.5542 82.1478 68.7167 78.576 73.832 78.576C78.9472 78.576 83.1097 82.1478 83.1097 86.5373C83.1097 90.9267 78.9472 94.4986 73.832 94.4986C68.7167 94.4986 64.5542 90.9267 64.5542 86.5373ZM87.9922 98.5229C85.9649 97.2225 83.6863 96.1999 81.2366 95.5106C84.5095 93.5143 86.6525 90.2375 86.6525 86.5373C86.6525 80.4717 80.9005 75.5359 73.832 75.5359C66.7634 75.5359 61.0115 80.4717 61.0115 86.5373C61.0115 90.2375 63.1544 93.5143 66.4273 95.5093C63.9761 96.1999 61.699 97.2238 59.6717 98.5229C52.5523 96.0027 46.5321 91.6464 42.422 86.069C43.2206 85.4154 43.7217 84.496 43.7217 83.476V82.587C45.1431 82.0129 46.1313 80.7773 46.1313 79.3419V77.3258C46.492 72.1453 47.989 69.9492 49.4366 67.8273C50.747 65.9037 52.1022 63.9167 52.1022 60.2218C52.1022 55.4884 49.395 51.2895 45.2433 48.6992C47.1812 46.6937 49.3873 44.9077 51.8293 43.3665C51.9218 43.4155 52.0174 43.4591 52.1207 43.4935L54.7677 44.368C55.1747 45.5758 55.7359 46.7386 56.445 47.842L55.2934 50.0671C54.9959 50.6412 55.1423 51.3146 55.6603 51.7591L59.6933 55.2199C60.2113 55.6644 60.996 55.79 61.6651 55.5347L64.2597 54.5452C65.5455 55.1537 66.8991 55.6366 68.3066 55.9858L69.3257 58.2573C69.5893 58.8447 70.246 59.2309 70.9799 59.2309H76.684C77.4163 59.2309 78.0731 58.8447 78.3367 58.2573L79.3557 55.9872C80.7648 55.6366 82.12 55.155 83.4042 54.5465L85.9972 55.5347C86.6663 55.79 87.451 55.6657 87.969 55.2199L92.0036 51.7591C92.5216 51.3146 92.6665 50.6412 92.369 50.0671L91.2173 47.8406C91.9265 46.7386 92.4877 45.5758 92.8947 44.368L95.5417 43.4935C95.645 43.4591 95.7421 43.4155 95.8331 43.3665C99.8167 45.8867 103.205 49.0868 105.741 52.7301L103.478 58.7481C103.421 58.9015 103.29 58.9836 103.1 58.9836L94.774 58.9703C94.7709 58.9703 94.7693 58.9703 94.7662 58.9703C93.0535 58.9703 91.5488 59.9083 91.02 61.3066C90.4881 62.7062 91.0662 64.2276 92.4568 65.0901L99.2016 69.2785C99.3558 69.3737 99.4051 69.506 99.3465 69.6608L96.7581 76.4514C96.2247 77.851 96.7997 79.3724 98.1872 80.2375C98.881 80.6701 99.6919 80.8858 100.503 80.8858C101.317 80.8858 102.131 80.6675 102.826 80.2336L109.551 76.024C109.705 75.9275 109.867 75.9275 110.019 76.024L110.073 76.0571C107.44 86.0994 99.1045 94.5832 87.9922 98.5229ZM125.038 62.6269L118.294 66.8152C116.9 67.6804 116.323 69.2031 116.858 70.6054L119.447 77.3959C119.505 77.5507 119.454 77.6817 119.302 77.7769C119.149 77.8722 118.987 77.8722 118.835 77.7769L112.108 73.5674C110.719 72.6969 108.854 72.6969 107.463 73.5674L100.739 77.7769C100.584 77.8722 100.424 77.8722 100.27 77.7782C100.117 77.6817 100.068 77.5507 100.127 77.3959L102.715 70.6054C103.248 69.2031 102.672 67.6804 101.28 66.8152L94.535 62.6269C94.3808 62.5316 94.3315 62.4007 94.3901 62.2459C94.4487 62.0911 94.5782 62.0104 94.7678 62.0104L103.094 62.0236C103.096 62.0236 103.099 62.0236 103.102 62.0236C104.818 62.0236 106.324 61.083 106.851 59.6807L109.409 52.8836C109.468 52.7288 109.599 52.6468 109.787 52.6468C109.976 52.6468 110.107 52.7288 110.164 52.8823L112.722 59.6807C113.249 61.083 114.755 62.0236 116.471 62.0236C116.474 62.0236 116.478 62.0236 116.481 62.0236L124.806 62.0104C124.806 62.0104 124.806 62.0104 124.807 62.0104C124.995 62.0104 125.126 62.0924 125.183 62.2459C125.242 62.4007 125.191 62.5316 125.038 62.6269ZM73.832 50.9892C81.1333 50.9892 87.0733 45.892 87.0733 39.6266C87.0733 33.3613 81.1333 28.2641 73.832 28.2641C66.5306 28.2641 60.5906 33.3613 60.5906 39.6266C60.5906 45.892 66.5306 50.9892 73.832 50.9892ZM73.832 31.3055C79.1785 31.3055 83.5306 35.0374 83.5306 39.6266C83.5306 44.2158 79.1785 47.9491 73.832 47.9491C68.4839 47.9491 64.1333 44.2158 64.1333 39.6266C64.1333 35.0374 68.4839 31.3055 73.832 31.3055ZM67.1874 40.9773C66.4952 40.3834 66.4952 39.4216 67.1874 38.8276C67.878 38.2336 69.0004 38.2336 69.6926 38.8276L71.6443 40.5024L78.033 35.5269C78.7576 34.962 79.8784 35.0083 80.5351 35.6301C81.1934 36.2519 81.1395 37.2136 80.4149 37.7785L72.7759 43.7264C72.4367 43.9909 72.0112 44.1219 71.5857 44.1219C71.131 44.1219 70.6777 43.9724 70.3324 43.6761L67.1874 40.9773Z" fill="#FFCF00"/>
</g>
</svg>
