<svg width="142" height="135" viewBox="0 0 142 135" fill="none" xmlns="http://www.w3.org/2000/svg">
<mask id="mask0_180_17" style="mask-type:luminance" maskUnits="userSpaceOnUse" x="47" y="22" width="73" height="47">
<path d="M47.3333 22.7405H119.28V68.76H47.3333V22.7405Z" fill="white"/>
</mask>
<g mask="url(#mask0_180_17)">
<path d="M47.5182 50.317V56.5538C47.5182 57.4425 48.2829 58.1695 49.2178 58.1695H62.943C62.8587 58.8952 62.8158 59.6433 62.8158 60.39V66.8489C62.8158 67.7377 63.5805 68.4647 64.5153 68.4647H101.913C102.848 68.4647 103.613 67.7377 103.613 66.8489V60.39C103.613 59.6433 103.57 58.8952 103.485 58.1695H117.211C118.145 58.1695 118.91 57.4425 118.91 56.5538V50.317C118.91 44.2406 114.746 39.0924 108.988 37.2755C110.603 35.7413 111.581 33.622 111.581 31.2806C111.581 26.5767 107.543 22.7405 102.592 22.7405C97.7478 22.7405 93.7954 26.3953 93.6046 30.9375C92.4139 26.2336 87.9527 22.7405 82.641 22.7405C77.6045 22.7405 73.3341 25.8694 71.8683 30.2105C71.3151 26.0114 67.5328 22.7405 62.9652 22.7405C58.0144 22.7405 53.9763 26.5767 53.9763 31.2806C53.9763 33.7233 55.0605 35.9438 56.8237 37.4977C51.3848 39.4763 47.5182 44.4825 47.5182 50.317ZM115.511 50.317V54.9394H102.784C101.276 50.0541 97.7907 45.9563 93.2008 43.4939C95.2835 41.1722 98.3424 39.7997 101.614 39.7997H104.462C110.56 39.8194 115.511 44.5233 115.511 50.317ZM102.592 25.9706C105.673 25.9706 108.18 28.3528 108.18 31.2806C108.18 34.207 105.673 36.5892 102.592 36.5892C99.5109 36.5892 97.0037 34.207 97.0037 31.2806C97.0037 28.3528 99.5109 25.9706 102.592 25.9706ZM93.9448 33.5813C94.3901 35.0958 95.2613 36.4486 96.452 37.4977C93.9226 38.4258 91.6921 40.0008 90.0354 42.12C89.886 42.0595 89.7381 42.0202 89.5887 41.9794C92.2024 40.0205 93.9226 36.9928 93.9448 33.5813ZM82.641 25.9706C86.9957 25.9706 90.5664 29.3428 90.5664 33.5011C90.5664 37.6594 87.0179 41.0302 82.641 41.0302C78.2642 41.0302 74.7157 37.6397 74.7157 33.5011C74.7157 29.3625 78.2642 25.9706 82.641 25.9706ZM83.215 44.2406C92.584 44.2406 100.212 51.487 100.212 60.39V65.2345H66.2164V60.39C66.2164 51.487 73.8444 44.2406 83.215 44.2406ZM71.358 34.2886C71.4852 35.9634 72.0162 37.5384 72.8667 38.9109C71.7825 38.2036 70.5932 37.6594 69.3389 37.2755C70.2101 36.4275 70.9112 35.4178 71.358 34.2886ZM62.943 25.9706C66.0241 25.9706 68.5313 28.3528 68.5313 31.2806C68.5313 34.207 66.0241 36.5892 62.943 36.5892C59.8633 36.5892 57.3547 34.207 57.3547 31.2806C57.3547 28.3528 59.8633 25.9706 62.943 25.9706ZM61.9667 39.8194H64.8141C68.086 39.8194 71.1242 41.1722 73.2276 43.5136C68.6378 45.9759 65.1528 50.0738 63.6441 54.9591H50.9173V50.3367C50.9173 44.5233 55.8681 39.8194 61.9667 39.8194Z" fill="#45B26B"/>
</g>
<mask id="mask1_180_17" style="mask-type:luminance" maskUnits="userSpaceOnUse" x="20" y="69" width="102" height="38">
<path d="M20.3134 69.48H121.173V106.98H20.3134V69.48Z" fill="white"/>
</mask>
<g mask="url(#mask1_180_17)">
<path d="M36.1284 69.5742H22.0201C21.0853 69.5742 20.3206 70.3013 20.3206 71.19V101.066C20.3206 101.955 21.0853 102.682 22.0201 102.682H36.1284C37.0633 102.682 37.828 101.955 37.828 101.066V98.5022H44.6277L64.7917 104.579C69.3609 106.194 73.2067 106.98 77.0304 106.98C80.8762 106.98 84.722 106.173 89.3119 104.559C89.482 104.498 89.6521 104.417 89.8015 104.296L119.336 81.4036C119.42 81.3234 119.506 81.2433 119.59 81.1617C121.694 78.6797 121.587 74.8842 119.336 72.5217C117.104 70.1606 113.514 69.9173 111.007 71.9775L96.261 83.302C96.261 83.16 96.261 83.0194 96.261 82.8773C96.1959 79.5066 93.4136 76.7405 90.0352 76.7405H73.6519C72.7171 76.7405 71.8252 76.2159 71.272 75.3483C71.1448 75.1669 70.9968 75.0052 70.8045 74.8631C63.8569 70.0791 55.081 69.1706 47.3686 72.4416L44.5212 73.6523H37.828V71.19C37.828 70.3013 37.084 69.5742 36.1284 69.5742ZM28.8199 97.0284C27.8836 97.0284 27.1188 96.3028 27.1188 95.4141C27.1188 94.5253 27.8836 93.7997 28.8199 93.7997C29.7547 93.7997 30.5194 94.5253 30.5194 95.4141C30.5194 96.3028 29.7547 97.0284 28.8199 97.0284ZM34.4289 75.2878V99.4514H31.6451C33.0044 98.5838 33.9186 97.11 33.9186 95.4141C33.9186 92.7492 31.6244 90.5695 28.8199 90.5695C26.0139 90.5695 23.7197 92.7492 23.7197 95.4141C23.7197 97.0889 24.6338 98.5838 25.9932 99.4514H23.7197V72.8044H34.4289V75.2878ZM44.9043 76.9022C45.138 76.9022 45.3718 76.8628 45.5833 76.7616L48.7709 75.4088C55.2733 72.6638 62.6455 73.3894 68.574 77.3269C69.7647 79.0017 71.6344 79.9706 73.6741 79.9706H90.0559C91.5854 79.9706 92.8604 81.3038 92.8826 82.9181C92.9033 83.8266 92.5631 84.6745 91.9463 85.2595C91.649 85.5422 91.288 85.7644 90.9271 85.8853C90.439 85.9669 89.9494 86.0063 89.4613 86.0063H71.2305C70.2957 86.0063 69.531 86.7333 69.531 87.622C69.531 88.5094 70.2957 89.2364 71.2305 89.2364H90.226C90.7363 89.2364 91.2451 89.1759 91.7348 89.055C93.8588 88.6922 95.8572 87.8034 97.6204 86.4717L113.217 74.4806C113.237 74.4595 113.237 74.4595 113.258 74.4398C114.363 73.5314 115.872 73.6523 116.87 74.6817C117.975 75.832 118.061 77.7502 117.083 79.0228L87.9318 101.631C79.6869 104.498 74.3116 104.458 66.0032 101.531C65.9825 101.531 65.9603 101.51 65.9189 101.51L45.4783 95.3339C45.3081 95.2931 45.138 95.2523 44.9679 95.2523H37.828V76.8825H44.9043V76.9022Z" fill="#45B26B"/>
</g>
</svg>
